<?xml version="1.0" standalone="no"?>
<!DOCTYPE svg PUBLIC "-//W3C//DTD SVG 1.1//EN" "http://www.w3.org/Graphics/SVG/1.1/DTD/svg11.dtd" >
<svg xmlns="http://www.w3.org/2000/svg" xmlns:xlink="http://www.w3.org/1999/xlink" version="1.1">
<metadata>
Created by FontForge 20190801 at Thu Nov 26 17:24:30 1998
 By root
Copyright 1990-1998 Bitstream Inc.  All rights reserved.
</metadata>
<defs>
<font id="NewsGothicBT-Roman" horiz-adv-x="1233" >
  <font-face 
    font-family="NewsGoth BT"
    font-weight="400"
    font-stretch="normal"
    units-per-em="2048"
    panose-1="2 11 5 3 2 2 3 2 2 4"
    ascent="1556"
    descent="-492"
    x-height="1071"
    cap-height="1481"
    bbox="-342 -483 2499 1966"
    underline-thickness="106"
    underline-position="-248"
    unicode-range="U+0020-F002"
  />
<missing-glyph horiz-adv-x="1229" 
d="M102 -362v1806h1024v-1806h-1024zM217 -248h795v1577h-795v-1577z" />
    <glyph glyph-name=".notdef" horiz-adv-x="1229" 
d="M102 -362v1806h1024v-1806h-1024zM217 -248h795v1577h-795v-1577z" />
    <glyph glyph-name=".null" horiz-adv-x="0" 
 />
    <glyph glyph-name="nonmarkingreturn" horiz-adv-x="616" 
 />
    <glyph glyph-name="space" unicode=" " horiz-adv-x="616" 
 />
    <glyph glyph-name="exclam" unicode="!" horiz-adv-x="633" 
d="M264 475l-45 1006h193l-45 -1006h-103zM215 0v231h201v-231h-201z" />
    <glyph glyph-name="quotedbl" unicode="&#x22;" horiz-adv-x="590" 
d="M496 1434v-553h-119v553h119zM211 1434v-553h-117v553h117z" />
    <glyph glyph-name="numbersign" unicode="#" horiz-adv-x="1575" 
d="M973 862h-264l-95 -272h263zM922 1456l-166 -471h260l168 471h143l-164 -471h307l-43 -123h-311l-94 -272h330l-43 -123h-332l-166 -469h-145l168 469h-265l-168 -469h-143l166 469h-320l43 123h320l96 272h-342l43 123h344l168 471h146z" />
    <glyph glyph-name="dollar" unicode="$" 
d="M569 850v506q-127 -8 -197.5 -71t-70.5 -169q0 -91 62.5 -153.5t205.5 -112.5zM682 119q134 6 215.5 77.5t81.5 182.5q0 104 -72.5 174t-224.5 113v-547zM569 -199v195q-147 11 -260.5 78t-191.5 190l116 88q59 -105 143.5 -164t192.5 -71v581q-219 69 -314 161.5
t-95 234.5q0 167 108 268t301 115v135h113v-137q133 -10 230.5 -69t170.5 -175l-114 -84q-53 99 -123.5 150t-163.5 57v-539q226 -56 333 -159t107 -265q0 -171 -116 -275.5t-324 -119.5v-195h-113z" />
    <glyph glyph-name="percent" unicode="%" horiz-adv-x="1741" 
d="M1081 315q0 -88 61 -149.5t148 -61.5q88 0 149.5 61.5t61.5 149.5q0 89 -60.5 149t-150.5 60q-89 0 -149 -60t-60 -149zM952 315q0 143 97.5 240.5t240.5 97.5t241.5 -97.5t98.5 -240.5q0 -142 -99 -241t-241 -99q-141 0 -239.5 99t-98.5 241zM236 1163q0 -87 61.5 -149
t148.5 -62q88 0 148.5 61.5t60.5 149.5q0 90 -60 150.5t-149 60.5t-149.5 -61t-60.5 -150zM389 -25l846 1528h113l-844 -1528h-115zM106 1163q0 143 99 241.5t241 98.5q143 0 240.5 -98.5t97.5 -241.5q0 -142 -98 -240t-240 -98t-241 98t-99 240z" />
    <glyph glyph-name="ampersand" unicode="&#x26;" horiz-adv-x="1309" 
d="M831 246q-106 101 -199 224.5t-171 266.5q-118 -76 -176 -158t-58 -173q0 -127 83.5 -210t211.5 -83q85 0 164 34t145 99zM526 909q118 79 170 151.5t52 158.5q0 80 -41.5 125t-114.5 45t-116.5 -51.5t-43.5 -137.5q0 -59 23.5 -131.5t70.5 -159.5zM928 145
q-100 -86 -202.5 -128t-213.5 -42q-199 0 -318.5 116.5t-119.5 307.5q0 140 78.5 249.5t244.5 203.5q-57 93 -84.5 177t-27.5 167q0 140 84 224.5t223 84.5t219 -75t80 -205q0 -119 -72 -220.5t-223 -195.5q82 -137 164.5 -247t163.5 -191q51 81 84 173.5t49 196.5l139 -22
q-17 -128 -59.5 -239t-110.5 -204q49 -50 110 -81.5t126 -38.5v-160q-99 6 -179.5 42.5t-154.5 106.5z" />
    <glyph glyph-name="quotesingle" unicode="'" horiz-adv-x="305" 
d="M211 1434v-553h-117v553h117z" />
    <glyph glyph-name="parenleft" unicode="(" horiz-adv-x="672" 
d="M410 -166q-146 207 -215.5 411.5t-69.5 424.5t69.5 424.5t215.5 410.5h157q-151 -207 -222 -409t-71 -426t71 -426t222 -410h-157z" />
    <glyph glyph-name="parenright" unicode=")" horiz-adv-x="672" 
d="M104 -166q152 208 222.5 410t70.5 426t-70.5 426t-222.5 409h158q146 -206 215.5 -410.5t69.5 -424.5t-69.5 -424.5t-215.5 -411.5h-158z" />
    <glyph glyph-name="asterisk" unicode="*" horiz-adv-x="1024" 
d="M512 999l-172 -294l-129 96l227 252l-329 75l47 150l311 -139l-25 342h140l-25 -342l311 139l47 -150l-329 -75l227 -252l-129 -96z" />
    <glyph glyph-name="plus" unicode="+" horiz-adv-x="1706" 
d="M913 1221v-551h539v-117h-539v-553h-118v553h-541v117h541v551h118z" />
    <glyph glyph-name="comma" unicode="," horiz-adv-x="616" 
d="M195 -305l112 319h-86v213h199v-239l-125 -297z" />
    <glyph glyph-name="hyphen" unicode="-" horiz-adv-x="676" 
d="M84 467v137h500v-137h-500z" />
    <glyph glyph-name="period" unicode="." horiz-adv-x="616" 
d="M209 0v225h199v-225h-199z" />
    <glyph glyph-name="slash" unicode="/" horiz-adv-x="557" 
d="M586 1505l-551 -1695h-119l549 1695h121z" />
    <glyph glyph-name="zero" unicode="0" 
d="M258 739q0 -312 90.5 -471t267.5 -159t267 158.5t90 471.5q0 314 -90 472.5t-267 158.5q-175 0 -266.5 -160.5t-91.5 -470.5zM102 739q0 374 132 569t382 195q251 0 382.5 -195t131.5 -569q0 -373 -131.5 -568.5t-382.5 -195.5q-250 0 -382 195.5t-132 568.5z" />
    <glyph glyph-name="one" unicode="1" 
d="M696 1503v-1370h244v-133h-639v133h250v1196l-275 -31v103q87 23 163 49t139 53h118z" />
    <glyph glyph-name="two" unicode="2" 
d="M102 0v139q49 110 128.5 212.5t197.5 205.5q53 47 169.5 131.5t162.5 132.5q71 75 104 141.5t33 135.5q0 128 -75.5 202t-207.5 74q-135 0 -225.5 -82t-122.5 -235l-143 30q44 205 170 310.5t325 105.5q202 0 319.5 -107.5t117.5 -291.5q0 -78 -19 -141.5t-59 -118.5
q-77 -109 -316 -286q-53 -38 -79 -58q-126 -95 -208 -185.5t-120 -177.5h801v-137h-953z" />
    <glyph glyph-name="three" unicode="3" 
d="M70 270l127 88q68 -123 167 -186t224 -63q155 0 242.5 78.5t87.5 218.5q0 156 -108.5 236.5t-320.5 80.5q-30 0 -56.5 -1t-55.5 -3v141q8 0 24 -1q64 -3 86 -3q189 0 288 72.5t99 210.5q0 108 -73.5 170.5t-200.5 62.5q-104 0 -186 -49t-156 -156l-117 88q92 126 207 187
t258 61q194 0 309 -97.5t115 -260.5q0 -123 -57.5 -211t-169.5 -135q135 -52 204.5 -148.5t69.5 -230.5q0 -203 -130.5 -324t-352.5 -121q-175 0 -307.5 74.5t-216.5 220.5z" />
    <glyph glyph-name="four" unicode="4" 
d="M895 1479v-1002h244v-127h-244v-375h-145v375h-666v105l600 1024h211zM750 477v866l-504 -866h504z" />
    <glyph glyph-name="five" unicode="5" 
d="M139 264l135 78q62 -117 148.5 -177.5t191.5 -60.5q161 0 255 110t94 298q0 164 -90 264.5t-236 100.5q-111 0 -189.5 -59.5t-115.5 -170.5l-133 33l63 799h758v-138h-631l-39 -464q67 68 139.5 98.5t169.5 30.5q207 0 334 -137t127 -363q0 -236 -139.5 -383.5
t-362.5 -147.5q-168 0 -288.5 73t-190.5 216z" />
    <glyph glyph-name="six" unicode="6" 
d="M285 525q7 -193 102.5 -304.5t251.5 -111.5q140 0 233 97.5t93 246.5q0 161 -86 256.5t-230 95.5q-115 0 -208.5 -72t-155.5 -208zM287 745q81 96 176.5 143.5t204.5 47.5q206 0 331 -133.5t125 -353.5q0 -209 -135.5 -340.5t-351.5 -131.5q-254 0 -384 174t-130 515
q0 386 159.5 610.5t430.5 224.5q91 0 173 -21t163 -65l-66 -127q-56 39 -122 57.5t-144 18.5q-198 0 -314 -166.5t-116 -452.5z" />
    <glyph glyph-name="seven" unicode="7" 
d="M281 -25l626 1366h-757v138h927v-99l-626 -1405h-170z" />
    <glyph glyph-name="eight" unicode="8" 
d="M592 721q-174 -66 -255 -148.5t-81 -191.5q0 -119 98.5 -194.5t255.5 -75.5q176 0 275.5 71.5t99.5 198.5q0 113 -86.5 189.5t-306.5 150.5zM633 854q165 54 232 118.5t67 168.5q0 109 -86.5 173t-233.5 64q-135 0 -222 -66t-87 -167q0 -95 80.5 -166t249.5 -125z
M424 784q-132 51 -200 139t-68 207q0 168 125 270.5t333 102.5q218 0 345.5 -99t127.5 -267q0 -122 -67 -209t-201 -137q166 -67 244 -168.5t78 -249.5q0 -187 -140 -292.5t-389 -105.5q-239 0 -375.5 109t-136.5 299q0 134 84 238t240 163z" />
    <glyph glyph-name="nine" unicode="9" 
d="M956 954q-7 193 -102 304.5t-252 111.5q-140 0 -233 -98t-93 -246q0 -161 86.5 -256.5t231.5 -95.5q115 0 207.5 71.5t154.5 208.5zM954 733q-81 -95 -176.5 -142.5t-204.5 -47.5q-207 0 -330.5 132t-123.5 355q0 207 135.5 339t349.5 132q255 0 385.5 -174t130.5 -514
q0 -387 -162 -612.5t-438 -225.5q-101 0 -183 22.5t-144 65.5l65 127q57 -39 123 -58t143 -19q197 0 313.5 167t116.5 453z" />
    <glyph glyph-name="colon" unicode=":" horiz-adv-x="633" 
d="M217 0v225h199v-225h-199zM217 592v225h199v-225h-199z" />
    <glyph glyph-name="semicolon" unicode=";" horiz-adv-x="633" 
d="M203 -305l112 319h-82v213h195v-239l-125 -297zM233 592v225h195v-225h-195z" />
    <glyph glyph-name="less" unicode="&#x3c;" horiz-adv-x="1706" 
d="M1442 1018l-1000 -408l1000 -405v-129l-1178 483v103l1178 483v-127z" />
    <glyph glyph-name="equal" unicode="=" horiz-adv-x="1706" 
d="M1452 477v-117h-1198v117h1198zM1452 860v-117h-1198v117h1198z" />
    <glyph glyph-name="greater" unicode="&#x3e;" horiz-adv-x="1706" 
d="M1442 662v-103l-1178 -483v129l1000 405l-1000 408v127z" />
    <glyph glyph-name="question" unicode="?" horiz-adv-x="899" 
d="M274 0v225h197v-225h-197zM310 471q-2 14 -2.5 27.5t-0.5 40.5q0 92 21 156.5t71 129.5q19 24 55 69q156 195 156 306q0 78 -46.5 126t-121.5 48q-67 0 -113.5 -38.5t-84.5 -125.5l-129 68q54 115 137 171t199 56q147 0 234 -85.5t87 -231.5q0 -69 -25.5 -135t-78.5 -135
q-30 -39 -88.5 -103.5t-79.5 -95.5q-29 -41 -41.5 -85.5t-12.5 -111.5q0 -8 1.5 -24.5t1.5 -26.5h-139z" />
    <glyph glyph-name="at" unicode="@" horiz-adv-x="2048" 
d="M1292 844l58 121h110l-141 -568q-6 -24 -9 -44t-3 -36q0 -44 27.5 -67t82.5 -23q45 0 100 24t103 64q89 76 139.5 196.5t50.5 254.5q0 266 -195.5 428t-518.5 162q-168 0 -312.5 -52t-259.5 -153q-140 -122 -211 -282.5t-71 -354.5q0 -173 60.5 -304t186.5 -230
q101 -81 240 -124.5t295 -43.5q172 0 334.5 48.5t296.5 139.5l45 -66q-147 -109 -313 -165t-347 -56q-191 0 -348 46.5t-276 138.5q-153 117 -228 272t-75 352q0 163 50.5 309t149.5 269q146 176 349.5 267t453.5 91q165 0 311 -43.5t248 -124.5q129 -99 195.5 -230
t66.5 -282q0 -169 -62.5 -308.5t-182.5 -236.5q-69 -55 -148.5 -83.5t-163.5 -28.5q-99 0 -148.5 39t-49.5 116q0 3 1 11t1 12q-51 -87 -127 -132.5t-170 -45.5q-153 0 -233.5 85t-80.5 247q0 230 137 389t332 159q91 0 153.5 -39.5t96.5 -117.5zM1202 473l60 242
q-17 90 -72 140t-135 50q-146 0 -244 -131.5t-98 -327.5q0 -110 51 -169.5t145 -59.5q102 0 183.5 70.5t109.5 185.5z" />
    <glyph glyph-name="A" unicode="A" 
d="M379 598h467l-221 772h-23zM35 0l457 1481h249l455 -1481h-172l-133 461h-551l-131 -461h-174z" />
    <glyph glyph-name="B" unicode="B" horiz-adv-x="1313" 
d="M666 709h-306v-568h306q199 0 291 67t92 212q0 141 -98 215t-285 74zM631 1348h-271v-502h316q160 0 246 67.5t86 194.5q0 123 -92 181.5t-285 58.5zM199 0v1481h401q303 0 438.5 -88.5t135.5 -284.5q0 -117 -61.5 -200t-180.5 -128q138 -53 211.5 -150.5t73.5 -230.5
q0 -198 -142.5 -298.5t-425.5 -100.5h-450z" />
    <glyph glyph-name="C" unicode="C" horiz-adv-x="1237" 
d="M1186 444q-54 -234 -184.5 -351.5t-337.5 -117.5q-273 0 -421.5 199.5t-148.5 566.5q0 357 149.5 560.5t407.5 203.5q206 0 334 -111.5t174 -330.5l-149 -39q-35 166 -124 254t-220 88q-195 0 -300.5 -164t-105.5 -467q0 -296 107 -457t303 -161q145 0 240.5 93.5
t125.5 266.5z" />
    <glyph glyph-name="D" unicode="D" horiz-adv-x="1389" 
d="M514 1343h-154v-1198h132q167 0 264.5 24t165.5 79q93 73 142.5 199t49.5 292q0 177 -49 305.5t-145 202.5q-67 52 -154 74t-252 22zM199 0v1481h352q169 0 276.5 -27.5t190.5 -89.5q124 -94 190 -254.5t66 -368.5q0 -369 -190.5 -555t-569.5 -186h-315z" />
    <glyph glyph-name="E" unicode="E" horiz-adv-x="1169" 
d="M199 0v1481h874v-140h-711v-495h504v-137h-504v-568h746v-141h-909z" />
    <glyph glyph-name="F" unicode="F" horiz-adv-x="1100" 
d="M199 0v1481h868v-140h-705v-493h523v-139h-523v-709h-163z" />
    <glyph glyph-name="G" unicode="G" horiz-adv-x="1352" 
d="M1069 0l-6 162q-69 -95 -165 -141t-226 -46q-268 0 -424 203.5t-156 554.5q0 367 154 569.5t432 202.5q195 0 323.5 -108.5t190.5 -325.5l-168 -33q-43 163 -131.5 244.5t-220.5 81.5q-198 0 -305 -160.5t-107 -458.5q0 -297 111.5 -462.5t310.5 -165.5q165 0 261.5 95.5
t96.5 260.5v105h-342v141h512v-719h-141z" />
    <glyph glyph-name="H" unicode="H" horiz-adv-x="1464" 
d="M199 0v1481h161v-633h744v633h162v-1481h-162v705h-744v-705h-161z" />
    <glyph glyph-name="I" unicode="I" horiz-adv-x="584" 
d="M209 0v1481h166v-1481h-166z" />
    <glyph glyph-name="J" unicode="J" horiz-adv-x="899" 
d="M6 168l129 90q51 -80 99 -111.5t116 -31.5q106 0 150.5 64.5t44.5 230.5v1071h160v-1088q0 -204 -90.5 -311t-264.5 -107q-115 0 -197.5 46.5t-146.5 146.5z" />
    <glyph glyph-name="K" unicode="K" horiz-adv-x="1276" 
d="M209 0v1481h162v-781l624 781h181l-463 -570l528 -911h-190l-445 784l-235 -286v-498h-162z" />
    <glyph glyph-name="L" unicode="L" horiz-adv-x="1067" 
d="M209 0v1481h168v-1340h661v-141h-829z" />
    <glyph glyph-name="M" unicode="M" horiz-adv-x="1716" 
d="M199 0v1481h252l413 -1252l416 1252h238v-1481h-158v1305l-447 -1305h-110l-447 1305v-1305h-157z" />
    <glyph glyph-name="N" unicode="N" horiz-adv-x="1464" 
d="M199 0v1481h233l680 -1155v1155h154v-1481h-127l-787 1311v-1311h-153z" />
    <glyph glyph-name="O" unicode="O" horiz-adv-x="1360" 
d="M260 741q0 -294 111.5 -458t308.5 -164t308.5 164t111.5 458q0 295 -111.5 459t-308.5 164t-308.5 -164t-111.5 -459zM94 741q0 349 159.5 556.5t426.5 207.5t426.5 -206.5t159.5 -557.5q0 -350 -159.5 -558t-426.5 -208q-266 0 -426 208t-160 558z" />
    <glyph glyph-name="P" unicode="P" 
d="M358 801h252q202 0 285.5 64t83.5 214q0 142 -87.5 203t-293.5 61h-240v-542zM199 0v1481h430q265 0 391.5 -98.5t126.5 -305.5q0 -198 -123.5 -306.5t-347.5 -108.5h-318v-662h-159z" />
    <glyph glyph-name="Q" unicode="Q" horiz-adv-x="1360" 
d="M907 190q-39 64 -81.5 95t-96.5 35v157q80 0 147 -39.5t130 -124.5q46 79 70 184t24 230q0 304 -110 470.5t-310 166.5q-197 0 -308.5 -164t-111.5 -459q0 -294 111.5 -458t308.5 -164q69 0 123.5 17t103.5 54zM987 68q-71 -47 -146.5 -70t-160.5 -23q-267 0 -426.5 208
t-159.5 558q0 351 159.5 557.5t426.5 206.5t426.5 -206.5t159.5 -557.5q0 -174 -42 -315t-126 -250q40 -65 91 -97.5t115 -35.5l1 -164h-7q-97 0 -173 46t-138 143z" />
    <glyph glyph-name="R" unicode="R" horiz-adv-x="1339" 
d="M614 1343h-254v-534h248q229 0 330.5 63t101.5 203q0 149 -90.5 208.5t-335.5 59.5zM199 0v1481h415q311 0 451.5 -93.5t140.5 -297.5q0 -145 -76.5 -240t-230.5 -139l348 -711h-180l-326 672h-381v-672h-161z" />
    <glyph glyph-name="S" unicode="S" horiz-adv-x="1147" 
d="M70 371l155 51q40 -142 137 -223.5t224 -81.5q141 0 225 70.5t84 187.5q0 69 -25 120t-75 85q-72 48 -249 112q-63 23 -95 35q-187 73 -263.5 161t-76.5 222q0 179 118.5 287t315.5 108q172 0 291.5 -93t171.5 -269l-148 -43q-36 131 -121 199.5t-211 68.5
q-119 0 -189.5 -65.5t-70.5 -176.5q0 -52 23.5 -96t73.5 -84q49 -38 227 -103q57 -20 88 -32q211 -80 292 -175t81 -251q0 -185 -125.5 -297.5t-333.5 -112.5q-199 0 -331 100t-193 296z" />
    <glyph glyph-name="T" unicode="T" horiz-adv-x="1124" 
d="M477 0v1339h-432v142h1032v-142h-432v-1339h-168z" />
    <glyph glyph-name="U" unicode="U" horiz-adv-x="1456" 
d="M195 1481h161v-955q0 -100 9 -150.5t30 -90.5q41 -80 128 -124t204 -44q119 0 206 44t128 124q21 42 30 94.5t9 173.5v928h162v-981q0 -257 -136.5 -391t-398.5 -134q-263 0 -397.5 132.5t-134.5 392.5v981z" />
    <glyph glyph-name="V" unicode="V" horiz-adv-x="1208" 
d="M530 0l-499 1481h168l399 -1200h12l402 1200h166l-504 -1481h-144z" />
    <glyph glyph-name="W" unicode="W" horiz-adv-x="1866" 
d="M477 0l-432 1481h166l315 -1110h11l321 1110h150l321 -1110h10l316 1110h164l-430 -1481h-107l-350 1202l-348 -1202h-107z" />
    <glyph glyph-name="X" unicode="X" horiz-adv-x="1122" 
d="M16 0l455 788l-410 693h189l313 -551l303 551h189l-400 -693l451 -788h-191l-352 643l-360 -643h-187z" />
    <glyph glyph-name="Y" unicode="Y" horiz-adv-x="1124" 
d="M481 0v625l-450 856h178l352 -684l354 684h179l-451 -856v-625h-162z" />
    <glyph glyph-name="Z" unicode="Z" horiz-adv-x="1118" 
d="M80 0v109l749 1234h-677v138h872v-105l-750 -1235h744v-141h-938z" />
    <glyph glyph-name="bracketleft" unicode="[" horiz-adv-x="668" 
d="M154 -145v1626h409v-90h-262v-1446h262v-90h-409z" />
    <glyph glyph-name="backslash" unicode="\" horiz-adv-x="557" 
d="M522 -190l-551 1695h119l551 -1695h-119z" />
    <glyph glyph-name="bracketright" unicode="]" horiz-adv-x="668" 
d="M102 -145v90h265v1446h-265v90h412v-1626h-412z" />
    <glyph glyph-name="asciicircum" unicode="^" horiz-adv-x="2048" 
d="M1104 1458l520 -557h-158l-442 438l-442 -438h-160l520 557h162z" />
    <glyph glyph-name="underscore" unicode="_" horiz-adv-x="1024" 
d="M1024 -365v-118h-1024v118h1024z" />
    <glyph glyph-name="grave" unicode="`" horiz-adv-x="1024" 
d="M649 1202h-106l-281 348h178z" />
    <glyph glyph-name="a" unicode="a" horiz-adv-x="1034" 
d="M727 281v294q-268 -54 -381 -123t-113 -176q0 -73 47 -116t128 -43q68 0 146 40t173 124zM721 145q-75 -81 -160 -121t-180 -40q-131 0 -213 82t-82 213q0 167 147 268t494 168v78q0 73 -60 120.5t-155 47.5q-87 0 -154 -43t-108 -125l-129 69q59 113 159.5 170.5
t239.5 57.5q171 0 265 -83.5t94 -234.5v-598q0 -41 5.5 -81t16.5 -77v-16h-164z" />
    <glyph glyph-name="b" unicode="b" horiz-adv-x="1102" 
d="M317 268q58 -84 126 -124t153 -40q131 0 203.5 110t72.5 308q0 222 -72.5 331.5t-219.5 109.5q-81 0 -147.5 -40.5t-115.5 -119.5v-535zM156 0q7 82 10.5 167t3.5 173v1141h147v-537q50 74 117.5 110t155.5 36q208 0 322 -146t114 -414q0 -265 -113 -406.5t-325 -141.5
q-94 0 -163 36t-120 111l-35 -129h-114z" />
    <glyph glyph-name="c" unicode="c" horiz-adv-x="961" 
d="M913 258q-65 -139 -166.5 -207.5t-240.5 -68.5q-210 0 -320 142t-110 413q0 261 114 408t316 147q138 0 238.5 -75.5t148.5 -213.5l-148 -47q-31 99 -94.5 153t-148.5 54q-133 0 -204 -110t-71 -316q0 -212 71.5 -320t211.5 -108q85 0 158 56t120 159z" />
    <glyph glyph-name="d" unicode="d" horiz-adv-x="1102" 
d="M786 803q-57 84 -125 124t-153 40q-131 0 -204 -109t-73 -307q0 -222 73 -332t220 -110q81 0 147.5 40t114.5 119v535zM934 1481v-1147q0 -137 3.5 -206t10.5 -128h-114l-35 135q-60 -80 -130.5 -115.5t-168.5 -35.5q-200 0 -311 146.5t-111 410.5q0 263 112 406t318 143
q95 0 164.5 -35.5t113.5 -106.5v533h148z" />
    <glyph glyph-name="e" unicode="e" horiz-adv-x="985" 
d="M233 633h522q-2 153 -71.5 241.5t-185.5 88.5q-120 0 -189 -86.5t-76 -243.5zM827 301l109 -68q-63 -128 -168 -189.5t-260 -61.5q-209 0 -319.5 142t-110.5 413q0 258 111.5 405.5t306.5 147.5q198 0 307.5 -142t109.5 -397v-45h-682v-35q0 -166 79.5 -264t211.5 -98
q101 0 179.5 49.5t125.5 142.5z" />
    <glyph glyph-name="f" unicode="f" horiz-adv-x="569" 
d="M186 0v944h-180v127h180v152q0 140 62 209t188 69q28 0 60 -4.5t71 -13.5v-123q-31 7 -58.5 10.5t-51.5 3.5q-62 0 -92.5 -35t-30.5 -104v-164h225v-127h-225v-944h-148z" />
    <glyph glyph-name="g" unicode="g" horiz-adv-x="995" 
d="M190 -106q0 -80 75.5 -121t219.5 -41q173 0 256.5 39.5t83.5 122.5q0 80 -83.5 118.5t-258.5 38.5q-140 0 -216.5 -41t-76.5 -116zM244 731q0 -123 65 -190.5t185 -67.5q114 0 179.5 65.5t65.5 180.5q0 117 -68 185.5t-186 68.5q-110 0 -175.5 -65.5t-65.5 -176.5z
M225 86q-66 23 -97.5 62.5t-31.5 99.5q0 52 32 92t112 86q-68 49 -102 121.5t-34 169.5q0 174 106 274.5t290 100.5q75 0 138 -20t114 -60q56 50 102.5 72t93.5 22h27v-139h-31q-55 0 -83 -8t-42 -25q31 -44 45.5 -95t14.5 -116q0 -171 -104.5 -271t-282.5 -100
q-38 0 -78.5 6t-81.5 17q-43 -16 -66.5 -41.5t-23.5 -54.5q0 -69 203 -83q65 -4 104 -8q244 -22 333 -86t89 -202q0 -142 -123.5 -215.5t-360.5 -73.5q-220 0 -330 65t-110 195q0 76 41.5 126.5t136.5 88.5z" />
    <glyph glyph-name="h" unicode="h" horiz-adv-x="1126" 
d="M168 0v1481h147v-568q90 93 176 135t187 42q138 0 213.5 -77.5t75.5 -219.5v-793h-146v737q0 121 -42.5 172.5t-139.5 51.5q-86 0 -166.5 -40.5t-157.5 -121.5v-799h-147z" />
    <glyph glyph-name="i" unicode="i" horiz-adv-x="508" 
d="M166 1300v181h176v-181h-176zM178 0v1071h152v-1071h-152z" />
    <glyph glyph-name="j" unicode="j" horiz-adv-x="514" 
d="M172 1300v181h178v-181h-178zM0 -248q18 -4 37.5 -6t42.5 -2q57 0 80.5 29.5t23.5 105.5v1192h152v-1157q0 -179 -54 -241t-188 -62q-28 0 -50.5 3.5t-43.5 11.5v126z" />
    <glyph glyph-name="k" unicode="k" horiz-adv-x="1006" 
d="M168 0v1481h149v-957l476 547h163l-344 -389l381 -682h-164l-317 567l-195 -215v-352h-149z" />
    <glyph glyph-name="l" unicode="l" horiz-adv-x="508" 
d="M178 0v1481h150v-1481h-150z" />
    <glyph glyph-name="m" unicode="m" horiz-adv-x="1698" 
d="M164 0v1071h137v-162q90 96 172 138.5t178 42.5q99 0 164 -46t94 -135q89 95 173 138t182 43q131 0 202.5 -77.5t71.5 -219.5v-793h-147v745q0 115 -39.5 165.5t-128.5 50.5q-81 0 -154.5 -40t-146.5 -122v-799h-142v741q0 116 -40 168t-130 52q-79 0 -150.5 -38.5
t-148.5 -123.5v-799h-147z" />
    <glyph glyph-name="n" unicode="n" horiz-adv-x="1098" 
d="M168 0v1071h137v-162q88 93 174 137t180 44q134 0 206.5 -78t72.5 -219v-793h-145v737q0 120 -40.5 172t-131.5 52q-80 0 -156 -40.5t-150 -121.5v-799h-147z" />
    <glyph glyph-name="o" unicode="o" horiz-adv-x="1030" 
d="M221 537q0 -210 76 -320.5t219 -110.5q142 0 217.5 110.5t75.5 318.5q0 209 -75 318.5t-218 109.5t-219 -109.5t-76 -316.5zM70 537q0 263 117 408t329 145t329.5 -145t117.5 -408q0 -264 -117.5 -409.5t-329.5 -145.5t-329 145.5t-117 409.5z" />
    <glyph glyph-name="p" unicode="p" horiz-adv-x="1108" 
d="M315 268q61 -85 130 -124.5t157 -39.5q136 0 209.5 110t73.5 314q0 217 -75 326t-224 109q-83 0 -152 -41t-119 -119v-535zM168 -389v1460h115l24 -131q63 80 130.5 115t156.5 35q212 0 328 -146t116 -414q0 -266 -115 -407t-331 -141q-90 0 -158 32.5t-119 100.5v-504
h-147z" />
    <glyph glyph-name="q" unicode="q" horiz-adv-x="1102" 
d="M782 803q-57 84 -125 124t-153 40q-131 0 -204 -109t-73 -307q0 -222 73 -332t220 -110q81 0 147.5 40t114.5 119v535zM944 1071q-7 -82 -10.5 -166.5t-3.5 -173.5v-1120h-148v516q-50 -73 -117 -109t-155 -36q-208 0 -322 146t-114 413q0 261 111 405t313 144
q100 0 174.5 -37.5t122.5 -110.5l34 129h115z" />
    <glyph glyph-name="r" unicode="r" horiz-adv-x="664" 
d="M168 0v1071h151v-244q55 132 130.5 194t179.5 62q14 0 21 -0.5t13 -1.5l1 -147h-19q-110 0 -193.5 -86.5t-132.5 -251.5v-596h-151z" />
    <glyph glyph-name="s" unicode="s" horiz-adv-x="891" 
d="M39 184l119 95q63 -87 139 -130t166 -43q98 0 156.5 49.5t58.5 131.5q0 122 -245 192q-55 16 -85 25q-136 41 -203 113.5t-67 179.5q0 130 90 211.5t233 81.5q119 0 214 -44t171 -135l-98 -98q-60 77 -129.5 115.5t-148.5 38.5q-83 0 -132 -42.5t-49 -113.5q0 -35 14 -64
t40 -47q49 -35 183 -71q65 -17 101 -29q136 -43 198 -114.5t62 -182.5q0 -146 -104 -233.5t-279 -87.5q-126 0 -232.5 53t-172.5 149z" />
    <glyph glyph-name="t" unicode="t" horiz-adv-x="627" 
d="M592 129v-125q-33 -11 -71.5 -16.5t-86.5 -5.5q-121 0 -182.5 52t-61.5 156v754h-159v127h159v346h156v-346h244v-127h-244v-686q0 -92 29 -118.5t112 -26.5q40 0 100 15z" />
    <glyph glyph-name="u" unicode="u" horiz-adv-x="1098" 
d="M928 1071v-1071h-135v162q-88 -93 -175 -136.5t-182 -43.5q-133 0 -205.5 77.5t-72.5 219.5v792h147v-737q0 -120 40.5 -171.5t131.5 -51.5q79 0 154 39.5t149 121.5v799h148z" />
    <glyph glyph-name="v" unicode="v" horiz-adv-x="938" 
d="M371 0l-351 1071h152l295 -917l295 917h151l-350 -1071h-192z" />
    <glyph glyph-name="w" unicode="w" horiz-adv-x="1495" 
d="M342 0l-297 1071h145l244 -897l248 897h129l248 -897l244 897h143l-295 -1071h-182l-224 803l-223 -803h-180z" />
    <glyph glyph-name="x" unicode="x" horiz-adv-x="893" 
d="M16 0l340 563l-313 508h166l231 -389l224 389h165l-303 -504l351 -567h-172l-265 455l-258 -455h-166z" />
    <glyph glyph-name="y" unicode="y" horiz-adv-x="938" 
d="M406 18l-386 1053h152l311 -856l279 856h151l-366 -1089q-75 -220 -159.5 -296.5t-229.5 -76.5q-25 0 -49 3t-46 9l1 137q23 -5 44.5 -7.5t38.5 -2.5q110 0 167.5 60t91.5 210z" />
    <glyph glyph-name="z" unicode="z" horiz-adv-x="891" 
d="M49 0v109l604 835h-544v127h725v-106l-607 -834h602v-131h-780z" />
    <glyph glyph-name="braceleft" unicode="{" horiz-adv-x="1024" 
d="M858 1350q-8 0 -23 1t-22 1q-121 0 -164 -47t-43 -197v-242q0 -166 -43.5 -235.5t-154.5 -100.5q111 -30 154.5 -99.5t43.5 -235.5v-242q0 -149 43.5 -195.5t169.5 -46.5h39v-125h-35q-99 0 -159.5 12t-102.5 40q-55 36 -77.5 100t-22.5 213v244q0 152 -55 213t-189 61
q-7 0 -22 -1t-23 -1v127q8 0 23 -1t22 -1q134 0 189 61.5t55 214.5v244q0 153 22.5 215.5t77.5 97.5q42 28 102 40t160 12h35v-127z" />
    <glyph glyph-name="bar" unicode="|" horiz-adv-x="1024" 
d="M575 1565v-2048h-126v2048h126z" />
    <glyph glyph-name="braceright" unicode="}" horiz-adv-x="1024" 
d="M563 1112v-244q0 -152 55.5 -214t190.5 -62q7 0 22 1t23 1v-127q-8 0 -23 1t-22 1q-135 0 -190.5 -62t-55.5 -214v-242q0 -153 -22 -216.5t-76 -99.5q-39 -26 -97.5 -37.5t-160.5 -11.5h-41v125q8 0 23 -1t22 -1q120 0 163.5 47.5t43.5 198.5v240q0 166 43.5 235.5
t154.5 99.5q-111 31 -154.5 100.5t-43.5 235.5v242q0 149 -44 196.5t-169 47.5h-39v125h35q100 0 161 -12.5t103 -39.5q54 -35 76 -98t22 -215z" />
    <glyph glyph-name="asciitilde" unicode="~" horiz-adv-x="1706" 
d="M1530 627q-101 -72 -197.5 -108t-189.5 -36q-43 0 -90.5 9t-100.5 26q-30 10 -87 31q-202 72 -302 72q-83 0 -173.5 -37.5t-211.5 -122.5v133q105 73 202 109t185 36q56 0 116.5 -12.5t174.5 -52.5q14 -5 44 -16q158 -58 245 -58q84 0 174.5 37t210.5 121v-131z" />
    <glyph glyph-name="Adieresis" unicode="&#xc4;" 
d="M379 598h467l-221 772h-23zM35 0l457 1481h249l455 -1481h-172l-133 461h-551l-131 -461h-174zM696 1682v186h160v-186h-160zM376 1682v186h160v-186h-160z" />
    <glyph glyph-name="Aring" unicode="&#xc5;" 
d="M379 598h467l-221 772h-23zM473 1696q0 -60 42 -102t101 -42q60 0 101 42t41 102t-41 101.5t-101 41.5t-101.5 -41.5t-41.5 -101.5zM1024 0l-133 461h-551l-131 -461h-174l457 1481q-64 38 -94.5 91t-30.5 124q0 104 71.5 176t175.5 72q105 0 177.5 -72t72.5 -176
q0 -67 -30 -120t-93 -95l455 -1481h-172z" />
    <glyph glyph-name="Ccedilla" unicode="&#xc7;" horiz-adv-x="1237" 
d="M1186 444q-54 -234 -184.5 -351.5t-337.5 -117.5q-273 0 -421.5 199.5t-148.5 566.5q0 357 149.5 560.5t407.5 203.5q206 0 334 -111.5t174 -330.5l-149 -39q-35 166 -124 254t-220 88q-195 0 -300.5 -164t-105.5 -467q0 -296 107 -457t303 -161q145 0 240.5 93.5
t125.5 266.5zM432 -422v86q74 -17 136.5 -26t109.5 -9q60 0 90.5 20.5t30.5 61.5q0 52 -33 75.5t-107 23.5q-20 0 -30.5 -0.5t-20.5 -1.5v192h74v-106h22q112 0 169 -45t57 -132q0 -89 -63 -135.5t-185 -46.5q-44 0 -103 10t-147 33z" />
    <glyph glyph-name="Eacute" unicode="&#xc9;" horiz-adv-x="1169" 
d="M199 0v1481h874v-140h-711v-495h504v-137h-504v-568h746v-141h-909zM516 1618l209 348h178l-281 -348h-106z" />
    <glyph glyph-name="Ntilde" unicode="&#xd1;" horiz-adv-x="1464" 
d="M199 0v1481h233l680 -1155v1155h154v-1481h-127l-787 1311v-1311h-153zM1024 1884q-24 -92 -75 -141t-124 -49q-16 0 -32 2.5t-33 7.5l-80 27q-12 4 -25.5 6t-27.5 2q-35 0 -58.5 -15.5t-38.5 -47.5h-88q22 91 72.5 138.5t126.5 47.5q14 0 29 -2.5t30 -7.5l78 -27
q17 -5 32.5 -7.5t28.5 -2.5q36 0 60.5 17.5t36.5 51.5h88z" />
    <glyph glyph-name="Odieresis" unicode="&#xd6;" horiz-adv-x="1360" 
d="M260 741q0 -294 111.5 -458t308.5 -164t308.5 164t111.5 458q0 295 -111.5 459t-308.5 164t-308.5 -164t-111.5 -459zM94 741q0 349 159.5 556.5t426.5 207.5t426.5 -206.5t159.5 -557.5q0 -350 -159.5 -558t-426.5 -208q-266 0 -426 208t-160 558zM760 1682v186h160
v-186h-160zM440 1682v186h160v-186h-160z" />
    <glyph glyph-name="Udieresis" unicode="&#xdc;" horiz-adv-x="1456" 
d="M195 1481h161v-955q0 -100 9 -150.5t30 -90.5q41 -80 128 -124t204 -44q119 0 206 44t128 124q21 42 30 94.5t9 173.5v928h162v-981q0 -257 -136.5 -391t-398.5 -134q-263 0 -397.5 132.5t-134.5 392.5v981zM821 1682v186h160v-186h-160zM501 1682v186h160v-186h-160z
" />
    <glyph glyph-name="aacute" unicode="&#xe1;" horiz-adv-x="1034" 
d="M727 281v294q-268 -54 -381 -123t-113 -176q0 -73 47 -116t128 -43q68 0 146 40t173 124zM721 145q-75 -81 -160 -121t-180 -40q-131 0 -213 82t-82 213q0 167 147 268t494 168v78q0 73 -60 120.5t-155 47.5q-87 0 -154 -43t-108 -125l-129 69q59 113 159.5 170.5
t239.5 57.5q171 0 265 -83.5t94 -234.5v-598q0 -41 5.5 -81t16.5 -77v-16h-164zM381 1202l209 348h178l-281 -348h-106z" />
    <glyph glyph-name="agrave" unicode="&#xe0;" horiz-adv-x="1034" 
d="M727 281v294q-268 -54 -381 -123t-113 -176q0 -73 47 -116t128 -43q68 0 146 40t173 124zM721 145q-75 -81 -160 -121t-180 -40q-131 0 -213 82t-82 213q0 167 147 268t494 168v78q0 73 -60 120.5t-155 47.5q-87 0 -154 -43t-108 -125l-129 69q59 113 159.5 170.5
t239.5 57.5q171 0 265 -83.5t94 -234.5v-598q0 -41 5.5 -81t16.5 -77v-16h-164zM655 1202h-106l-281 348h178z" />
    <glyph glyph-name="acircumflex" unicode="&#xe2;" horiz-adv-x="1034" 
d="M727 281v294q-268 -54 -381 -123t-113 -176q0 -73 47 -116t128 -43q68 0 146 40t173 124zM721 145q-75 -81 -160 -121t-180 -40q-131 0 -213 82t-82 213q0 167 147 268t494 168v78q0 73 -60 120.5t-155 47.5q-87 0 -154 -43t-108 -125l-129 69q59 113 159.5 170.5
t239.5 57.5q171 0 265 -83.5t94 -234.5v-598q0 -41 5.5 -81t16.5 -77v-16h-164zM231 1202l197 348h178l197 -348h-107l-178 242l-180 -242h-107z" />
    <glyph glyph-name="adieresis" unicode="&#xe4;" horiz-adv-x="1034" 
d="M727 281v294q-268 -54 -381 -123t-113 -176q0 -73 47 -116t128 -43q68 0 146 40t173 124zM721 145q-75 -81 -160 -121t-180 -40q-131 0 -213 82t-82 213q0 167 147 268t494 168v78q0 73 -60 120.5t-155 47.5q-87 0 -154 -43t-108 -125l-129 69q59 113 159.5 170.5
t239.5 57.5q171 0 265 -83.5t94 -234.5v-598q0 -41 5.5 -81t16.5 -77v-16h-164zM598 1266v186h160v-186h-160zM278 1266v186h160v-186h-160z" />
    <glyph glyph-name="atilde" unicode="&#xe3;" horiz-adv-x="1034" 
d="M727 281v294q-268 -54 -381 -123t-113 -176q0 -73 47 -116t128 -43q68 0 146 40t173 124zM721 145q-75 -81 -160 -121t-180 -40q-131 0 -213 82t-82 213q0 167 147 268t494 168v78q0 73 -60 120.5t-155 47.5q-87 0 -154 -43t-108 -125l-129 69q59 113 159.5 170.5
t239.5 57.5q171 0 265 -83.5t94 -234.5v-598q0 -41 5.5 -81t16.5 -77v-16h-164zM809 1468q-24 -92 -75 -141t-124 -49q-16 0 -32 2.5t-33 7.5l-80 27q-12 4 -25.5 6t-27.5 2q-35 0 -58.5 -15.5t-38.5 -47.5h-88q22 91 72.5 138.5t126.5 47.5q14 0 29 -2.5t30 -7.5l78 -27
q17 -5 32.5 -7.5t28.5 -2.5q36 0 60.5 17.5t36.5 51.5h88z" />
    <glyph glyph-name="aring" unicode="&#xe5;" horiz-adv-x="1034" 
d="M301 1430q0 104 71.5 175.5t176.5 71.5q104 0 176 -71.5t72 -175.5q0 -105 -72 -176.5t-176 -71.5q-105 0 -176.5 71.5t-71.5 176.5zM727 281v294q-268 -54 -381 -123t-113 -176q0 -73 47 -116t128 -43q68 0 146 40t173 124zM406 1430q0 -60 41.5 -102t101.5 -42
q59 0 100 41.5t41 102.5q0 60 -41 101.5t-100 41.5q-61 0 -102 -41.5t-41 -101.5zM721 145q-75 -81 -160 -121t-180 -40q-131 0 -213 82t-82 213q0 167 147 268t494 168v78q0 73 -60 120.5t-155 47.5q-87 0 -154 -43t-108 -125l-129 69q59 113 159.5 170.5t239.5 57.5
q171 0 265 -83.5t94 -234.5v-598q0 -41 5.5 -81t16.5 -77v-16h-164z" />
    <glyph glyph-name="ccedilla" unicode="&#xe7;" horiz-adv-x="961" 
d="M913 258q-65 -139 -166.5 -207.5t-240.5 -68.5q-210 0 -320 142t-110 413q0 261 114 408t316 147q138 0 238.5 -75.5t148.5 -213.5l-148 -47q-31 99 -94.5 153t-148.5 54q-133 0 -204 -110t-71 -316q0 -212 71.5 -320t211.5 -108q85 0 158 56t120 159zM268 -422v86
q74 -17 136.5 -26t109.5 -9q60 0 90.5 20.5t30.5 61.5q0 52 -33 75.5t-107 23.5q-20 0 -30.5 -0.5t-20.5 -1.5v192h74v-106h22q112 0 169 -45t57 -132q0 -89 -63 -135.5t-185 -46.5q-44 0 -103 10t-147 33z" />
    <glyph glyph-name="eacute" unicode="&#xe9;" horiz-adv-x="985" 
d="M233 633h522q-2 153 -71.5 241.5t-185.5 88.5q-120 0 -189 -86.5t-76 -243.5zM827 301l109 -68q-63 -128 -168 -189.5t-260 -61.5q-209 0 -319.5 142t-110.5 413q0 258 111.5 405.5t306.5 147.5q198 0 307.5 -142t109.5 -397v-45h-682v-35q0 -166 79.5 -264t211.5 -98
q101 0 179.5 49.5t125.5 142.5zM373 1202l209 348h178l-281 -348h-106z" />
    <glyph glyph-name="egrave" unicode="&#xe8;" horiz-adv-x="985" 
d="M233 633h522q-2 153 -71.5 241.5t-185.5 88.5q-120 0 -189 -86.5t-76 -243.5zM827 301l109 -68q-63 -128 -168 -189.5t-260 -61.5q-209 0 -319.5 142t-110.5 413q0 258 111.5 405.5t306.5 147.5q198 0 307.5 -142t109.5 -397v-45h-682v-35q0 -166 79.5 -264t211.5 -98
q101 0 179.5 49.5t125.5 142.5zM647 1202h-106l-281 348h178z" />
    <glyph glyph-name="ecircumflex" unicode="&#xea;" horiz-adv-x="985" 
d="M233 633h522q-2 153 -71.5 241.5t-185.5 88.5q-120 0 -189 -86.5t-76 -243.5zM827 301l109 -68q-63 -128 -168 -189.5t-260 -61.5q-209 0 -319.5 142t-110.5 413q0 258 111.5 405.5t306.5 147.5q198 0 307.5 -142t109.5 -397v-45h-682v-35q0 -166 79.5 -264t211.5 -98
q101 0 179.5 49.5t125.5 142.5zM223 1202l197 348h178l197 -348h-107l-178 242l-180 -242h-107z" />
    <glyph glyph-name="edieresis" unicode="&#xeb;" horiz-adv-x="985" 
d="M233 633h522q-2 153 -71.5 241.5t-185.5 88.5q-120 0 -189 -86.5t-76 -243.5zM827 301l109 -68q-63 -128 -168 -189.5t-260 -61.5q-209 0 -319.5 142t-110.5 413q0 258 111.5 405.5t306.5 147.5q198 0 307.5 -142t109.5 -397v-45h-682v-35q0 -166 79.5 -264t211.5 -98
q101 0 179.5 49.5t125.5 142.5zM590 1266v186h160v-186h-160zM270 1266v186h160v-186h-160z" />
    <glyph glyph-name="iacute" unicode="&#xed;" horiz-adv-x="508" 
d="M178 0v1071h152v-1071h-152zM117 1202l209 348h178l-281 -348h-106z" />
    <glyph glyph-name="igrave" unicode="&#xec;" horiz-adv-x="508" 
d="M178 0v1071h152v-1071h-152zM391 1202h-106l-281 348h178z" />
    <glyph glyph-name="icircumflex" unicode="&#xee;" horiz-adv-x="508" 
d="M178 0v1071h152v-1071h-152zM-33 1202l197 348h178l197 -348h-107l-178 242l-180 -242h-107z" />
    <glyph glyph-name="idieresis" unicode="&#xef;" horiz-adv-x="508" 
d="M178 0v1071h152v-1071h-152zM334 1266v186h160v-186h-160zM14 1266v186h160v-186h-160z" />
    <glyph glyph-name="ntilde" unicode="&#xf1;" horiz-adv-x="1098" 
d="M168 0v1071h137v-162q88 93 174 137t180 44q134 0 206.5 -78t72.5 -219v-793h-145v737q0 120 -40.5 172t-131.5 52q-80 0 -156 -40.5t-150 -121.5v-799h-147zM840 1468q-24 -92 -75 -141t-124 -49q-16 0 -32 2.5t-33 7.5l-80 27q-12 4 -25.5 6t-27.5 2q-35 0 -58.5 -15.5
t-38.5 -47.5h-88q22 91 72.5 138.5t126.5 47.5q14 0 29 -2.5t30 -7.5l78 -27q17 -5 32.5 -7.5t28.5 -2.5q36 0 60.5 17.5t36.5 51.5h88z" />
    <glyph glyph-name="oacute" unicode="&#xf3;" horiz-adv-x="1030" 
d="M221 537q0 -210 76 -320.5t219 -110.5q142 0 217.5 110.5t75.5 318.5q0 209 -75 318.5t-218 109.5t-219 -109.5t-76 -316.5zM70 537q0 263 117 408t329 145t329.5 -145t117.5 -408q0 -264 -117.5 -409.5t-329.5 -145.5t-329 145.5t-117 409.5zM379 1202l209 348h178
l-281 -348h-106z" />
    <glyph glyph-name="ograve" unicode="&#xf2;" horiz-adv-x="1030" 
d="M221 537q0 -210 76 -320.5t219 -110.5q142 0 217.5 110.5t75.5 318.5q0 209 -75 318.5t-218 109.5t-219 -109.5t-76 -316.5zM70 537q0 263 117 408t329 145t329.5 -145t117.5 -408q0 -264 -117.5 -409.5t-329.5 -145.5t-329 145.5t-117 409.5zM653 1202h-106l-281 348
h178z" />
    <glyph glyph-name="ocircumflex" unicode="&#xf4;" horiz-adv-x="1030" 
d="M221 537q0 -210 76 -320.5t219 -110.5q142 0 217.5 110.5t75.5 318.5q0 209 -75 318.5t-218 109.5t-219 -109.5t-76 -316.5zM70 537q0 263 117 408t329 145t329.5 -145t117.5 -408q0 -264 -117.5 -409.5t-329.5 -145.5t-329 145.5t-117 409.5zM229 1202l197 348h178
l197 -348h-107l-178 242l-180 -242h-107z" />
    <glyph glyph-name="odieresis" unicode="&#xf6;" horiz-adv-x="1030" 
d="M221 537q0 -210 76 -320.5t219 -110.5q142 0 217.5 110.5t75.5 318.5q0 209 -75 318.5t-218 109.5t-219 -109.5t-76 -316.5zM70 537q0 263 117 408t329 145t329.5 -145t117.5 -408q0 -264 -117.5 -409.5t-329.5 -145.5t-329 145.5t-117 409.5zM596 1266v186h160v-186
h-160zM276 1266v186h160v-186h-160z" />
    <glyph glyph-name="otilde" unicode="&#xf5;" horiz-adv-x="1030" 
d="M221 537q0 -210 76 -320.5t219 -110.5q142 0 217.5 110.5t75.5 318.5q0 209 -75 318.5t-218 109.5t-219 -109.5t-76 -316.5zM70 537q0 263 117 408t329 145t329.5 -145t117.5 -408q0 -264 -117.5 -409.5t-329.5 -145.5t-329 145.5t-117 409.5zM807 1468q-24 -92 -75 -141
t-124 -49q-16 0 -32 2.5t-33 7.5l-80 27q-12 4 -25.5 6t-27.5 2q-35 0 -58.5 -15.5t-38.5 -47.5h-88q22 91 72.5 138.5t126.5 47.5q14 0 29 -2.5t30 -7.5l78 -27q17 -5 32.5 -7.5t28.5 -2.5q36 0 60.5 17.5t36.5 51.5h88z" />
    <glyph glyph-name="uacute" unicode="&#xfa;" horiz-adv-x="1098" 
d="M928 1071v-1071h-135v162q-88 -93 -175 -136.5t-182 -43.5q-133 0 -205.5 77.5t-72.5 219.5v792h147v-737q0 -120 40.5 -171.5t131.5 -51.5q79 0 154 39.5t149 121.5v799h148zM412 1202l209 348h178l-281 -348h-106z" />
    <glyph glyph-name="ugrave" unicode="&#xf9;" horiz-adv-x="1098" 
d="M928 1071v-1071h-135v162q-88 -93 -175 -136.5t-182 -43.5q-133 0 -205.5 77.5t-72.5 219.5v792h147v-737q0 -120 40.5 -171.5t131.5 -51.5q79 0 154 39.5t149 121.5v799h148zM686 1202h-106l-281 348h178z" />
    <glyph glyph-name="ucircumflex" unicode="&#xfb;" horiz-adv-x="1098" 
d="M928 1071v-1071h-135v162q-88 -93 -175 -136.5t-182 -43.5q-133 0 -205.5 77.5t-72.5 219.5v792h147v-737q0 -120 40.5 -171.5t131.5 -51.5q79 0 154 39.5t149 121.5v799h148zM262 1202l197 348h178l197 -348h-107l-178 242l-180 -242h-107z" />
    <glyph glyph-name="udieresis" unicode="&#xfc;" horiz-adv-x="1098" 
d="M928 1071v-1071h-135v162q-88 -93 -175 -136.5t-182 -43.5q-133 0 -205.5 77.5t-72.5 219.5v792h147v-737q0 -120 40.5 -171.5t131.5 -51.5q79 0 154 39.5t149 121.5v799h148zM629 1266v186h160v-186h-160zM309 1266v186h160v-186h-160z" />
    <glyph glyph-name="dagger" unicode="&#x2020;" horiz-adv-x="1024" 
d="M473 -225q-1 273 -14.5 489t-38.5 369q20 106 33 194.5t20 163.5l-323 -51v178l325 -53l-55 416h184l-55 -416l328 53v-178l-330 51q10 -86 24 -175.5t33 -182.5q-24 -119 -37 -330.5t-16 -527.5h-78z" />
    <glyph glyph-name="degree" unicode="&#xb0;" horiz-adv-x="674" 
d="M539 1171q0 84 -58.5 142.5t-142.5 58.5t-143.5 -58.5t-59.5 -142.5t59.5 -143t143.5 -59t142.5 59t58.5 143zM338 1454q117 0 200 -83t83 -200q0 -116 -83.5 -199t-201.5 -83t-199.5 82t-81.5 200q0 119 82.5 201t200.5 82z" />
    <glyph glyph-name="cent" unicode="&#xa2;" 
d="M438 231l272 734q-24 9 -47 13.5t-45 4.5q-119 0 -192.5 -115.5t-73.5 -308.5q0 -114 22 -197.5t64 -130.5zM281 -213l108 301q-93 62 -142.5 184.5t-49.5 290.5q0 246 120 396.5t314 150.5q32 0 63 -3.5t61 -10.5l79 213h120l-94 -258q49 -33 92 -91t78 -141l-141 -51
q-17 49 -37 81.5t-45 53.5l-275 -751q26 -11 52.5 -16t56.5 -5q96 0 168 52.5t113 152.5l129 -60q-59 -136 -163 -206t-249 -70q-49 0 -85 6.5t-67 20.5l-86 -240h-120z" />
    <glyph glyph-name="sterling" unicode="&#xa3;" 
d="M61 -23v166q113 39 166.5 147.5t53.5 299.5q0 35 -0.5 53t-2.5 35h-215v121h205q-11 88 -16.5 150.5t-5.5 105.5q0 206 114.5 327t309.5 121q183 0 303 -96.5t166 -282.5l-148 -30q-26 128 -112.5 203t-208.5 75q-127 0 -199 -82.5t-72 -228.5q0 -40 6 -110t17 -152h299
v-121h-283q0 -9 1 -28.5t1 -28.5q0 -107 -16.5 -194t-50.5 -159q106 -74 199 -110.5t173 -36.5q122 0 191 61.5t94 192.5l144 -25q-34 -187 -133.5 -282t-262.5 -95q-110 0 -226 41t-245 125q-53 -68 -114.5 -108.5t-131.5 -53.5z" />
    <glyph glyph-name="section" unicode="&#xa7;" horiz-adv-x="1024" 
d="M274 823q0 -38 26 -84t93 -125q82 -92 143.5 -137t106.5 -45q48 0 80.5 32t32.5 79q0 42 -30 92t-112 139q-79 88 -130.5 125t-92.5 37q-46 0 -81.5 -34t-35.5 -79zM207 -4l100 74q44 -63 97.5 -98t103.5 -35q61 0 101 36t40 90q0 86 -169 265l-7 8q-21 22 -62 64
q-266 274 -266 405q0 104 60.5 161.5t169.5 57.5q-62 69 -91.5 128.5t-29.5 117.5q0 103 72 169t186 66q87 0 162.5 -45.5t122.5 -126.5l-101 -71q-39 60 -86.5 94.5t-91.5 34.5q-58 0 -95.5 -33t-37.5 -84q0 -41 35.5 -92.5t154.5 -171.5l10 -10q304 -300 304 -459
q0 -90 -62.5 -146t-166.5 -59q60 -69 90 -135.5t30 -132.5q0 -112 -73.5 -182t-188.5 -70q-93 0 -175.5 47.5t-135.5 132.5z" />
    <glyph glyph-name="bullet" unicode="&#x2022;" horiz-adv-x="1208" 
d="M307 762q0 123 87 209t210 86q122 0 208.5 -86.5t86.5 -208.5t-87.5 -209.5t-209.5 -87.5q-123 0 -209 87t-86 210z" />
    <glyph glyph-name="paragraph" unicode="&#xb6;" horiz-adv-x="1024" 
d="M948 1401h-125v-1401h-94v1401h-182v-1401h-96v782q-173 8 -274 102.5t-101 245.5q0 157 107.5 253t285.5 96h479v-78z" />
    <glyph glyph-name="germandbls" unicode="&#xdf;" horiz-adv-x="1083" 
d="M168 0v1092q0 183 101 286t280 103q175 0 273 -98t98 -273q0 -119 -50 -197t-139 -98q127 -25 201 -137t74 -281q0 -193 -97 -304t-264 -111q-55 0 -106 14.5t-99 44.5l62 119q38 -25 74 -37t69 -12q98 0 151.5 74.5t53.5 211.5q0 170 -87 253.5t-267 86.5v121
q137 8 205.5 70.5t68.5 179.5q0 114 -62 180t-169 66q-105 0 -162.5 -68t-57.5 -192v-1094h-151z" />
    <glyph glyph-name="registered" unicode="&#xae;" horiz-adv-x="1706" 
d="M846 1065h-144v-291h148q123 0 175 33t52 108q0 79 -54.5 114.5t-176.5 35.5zM872 1157q178 0 264.5 -57t86.5 -174q0 -89 -53 -148.5t-144 -75.5l188 -385h-157l-176 365h-179v-365h-141v840h311zM1501 721q0 133 -48 251.5t-138 209.5q-94 93 -211.5 141.5t-251.5 48.5
q-132 0 -247 -47t-204 -137q-94 -95 -144 -214t-50 -249q0 -127 49 -244t141 -211q91 -92 208 -141t245 -49q131 0 249.5 48.5t213.5 141.5q91 90 139.5 206t48.5 245zM852 1460q150 0 284 -55.5t240 -161.5q102 -102 156.5 -235.5t54.5 -282.5q0 -151 -54.5 -283
t-158.5 -233q-109 -106 -243.5 -162.5t-278.5 -56.5q-145 0 -278.5 56t-239.5 163q-105 104 -160 237t-55 279q0 147 57 282t164 242q101 103 232 157t280 54z" />
    <glyph glyph-name="copyright" unicode="&#xa9;" horiz-adv-x="1706" 
d="M1065 911q-15 77 -70.5 120.5t-138.5 43.5q-117 0 -182.5 -92.5t-65.5 -259.5q0 -160 66.5 -252t181.5 -92q87 0 145.5 48.5t73.5 133.5h129q-11 -127 -109 -207t-245 -80q-176 0 -280.5 121t-104.5 326q0 208 107.5 332.5t287.5 124.5q137 0 230 -74.5t104 -192.5h-129z
M1501 725q0 130 -49 249t-139 210q-92 92 -210 140t-251 48q-132 0 -247.5 -47.5t-205.5 -138.5q-93 -95 -142.5 -214t-49.5 -247q0 -127 49 -244t141 -211q93 -92 209.5 -141t245.5 -49t248.5 50t214.5 142q91 90 138.5 205.5t47.5 247.5zM852 1460q151 0 285 -55t239 -160
q102 -102 156.5 -236t54.5 -284q0 -151 -54 -283t-157 -233q-109 -106 -244.5 -162.5t-279.5 -56.5q-146 0 -278 55.5t-238 161.5q-106 105 -161.5 238.5t-55.5 279.5q0 145 56.5 279.5t162.5 242.5q102 104 234 158.5t280 54.5z" />
    <glyph glyph-name="trademark" unicode="&#x2122;" horiz-adv-x="1706" 
d="M948 1456l160 -405l149 405h132v-534h-82v458l-172 -458h-54l-180 458v-458h-82v534h129zM694 1456v-67h-172v-467h-94v467h-174v67h440z" />
    <glyph glyph-name="acute" unicode="&#xb4;" horiz-adv-x="1024" 
d="M375 1202l209 348h178l-281 -348h-106z" />
    <glyph glyph-name="dieresis" unicode="&#xa8;" horiz-adv-x="1024" 
d="M592 1266v186h160v-186h-160zM272 1266v186h160v-186h-160z" />
    <glyph glyph-name="notequal" unicode="&#x2260;" horiz-adv-x="1706" 
d="M1298 1110l-196 -250h350v-115h-424l-211 -270h635v-115h-709l-251 -319l-89 70l197 249h-346v115h420l211 270h-631v115h704l252 320z" />
    <glyph glyph-name="AE" unicode="&#xc6;" horiz-adv-x="1794" 
d="M-45 0l688 1481h1018v-140h-664v-495h465v-137h-465v-568h699v-141h-856v461h-512l-213 -461h-160zM389 598h451v743h-113z" />
    <glyph glyph-name="Oslash" unicode="&#xd8;" horiz-adv-x="1360" 
d="M1008 1165l-596 -932q48 -57 118 -85.5t162 -28.5q189 0 298.5 168.5t109.5 464.5q0 112 -23 213.5t-69 199.5zM340 336l592 930q-51 49 -114 73.5t-138 24.5q-197 0 -308.5 -164t-111.5 -459q0 -113 20 -213.5t60 -191.5zM244 199q-76 112 -113 246t-37 296
q0 350 160 557t426 207q99 0 180.5 -26.5t145.5 -79.5l110 172l113 -72l-125 -201q80 -101 121 -241t41 -316q0 -350 -159 -558t-425 -208q-106 0 -193 31t-153 92l-137 -217l-113 72z" />
    <glyph glyph-name="infinity" unicode="&#x221e;" horiz-adv-x="1706" 
d="M905 559q51 -95 119 -141.5t156 -46.5q102 0 168.5 71t66.5 181q0 108 -61 179.5t-152 71.5q-85 0 -153.5 -72.5t-143.5 -242.5zM803 666q-51 95 -119 142.5t-154 47.5q-105 0 -171 -71t-66 -183q0 -108 61 -179t152 -71q85 0 152 69t145 245zM840 727q67 138 146 204
t175 66q134 0 226 -108.5t92 -272.5q0 -171 -82 -277t-213 -106q-96 0 -169 60t-149 201q-71 -138 -148 -201.5t-173 -63.5q-134 0 -226 109t-92 272q0 172 82.5 277.5t214.5 105.5q97 0 172 -63t144 -203z" />
    <glyph glyph-name="plusminus" unicode="&#xb1;" horiz-adv-x="1706" 
d="M1452 158v-117h-1198v117h1198zM913 1180v-344h539v-117h-539v-344h-118v344h-541v117h541v344h118z" />
    <glyph glyph-name="lessequal" unicode="&#x2264;" horiz-adv-x="1706" 
d="M1444 150v-117h-1182v117h1182zM1444 1067l-977 -324l977 -323v-125l-1182 399v101l1182 397v-125z" />
    <glyph glyph-name="greaterequal" unicode="&#x2265;" horiz-adv-x="1706" 
d="M1444 150v-117h-1182v117h1182zM1444 795v-101l-1182 -399v125l979 323l-979 324v125z" />
    <glyph glyph-name="yen" unicode="&#xa5;" 
d="M252 1479l362 -717l369 717h156l-240 -457h252v-98h-305l-103 -197h408v-98h-463v-629h-143v629h-465v98h407l-100 197h-307v98h254l-242 457h160z" />
    <glyph glyph-name="mu" unicode="&#xb5;" horiz-adv-x="1128" 
d="M362 1069l-126 -595q-8 -33 -11.5 -67t-3.5 -71q0 -109 57 -168t160 -59q125 0 208 101t128 308l121 551h156l-162 -754q-12 -52 -17.5 -84t-5.5 -51q0 -32 18.5 -48.5t53.5 -16.5q9 0 17.5 0.5t17.5 1.5l-27 -125q-21 -5 -44 -7.5t-48 -2.5q-70 0 -104.5 35t-40.5 112
q-41 -70 -117 -108.5t-172 -38.5q-87 0 -152.5 34t-109.5 103l-113 -545h-156l316 1495h157z" />
    <glyph glyph-name="partialdiff" unicode="&#x2202;" horiz-adv-x="1044" 
d="M754 604q13 81 19.5 161.5t6.5 158.5q0 140 -39.5 216.5t-111.5 76.5q-53 0 -117 -63.5t-109 -63.5q-29 0 -51 21.5t-22 51.5q0 59 68 105.5t163 46.5q171 0 273 -152.5t102 -412.5q0 -335 -139 -555t-344 -220q-147 0 -241.5 106.5t-94.5 272.5q0 189 108.5 316
t266.5 127q99 0 162.5 -47t99.5 -146zM709 483q0 117 -45 180.5t-127 63.5q-113 0 -184.5 -127.5t-71.5 -333.5q0 -117 44 -178t128 -61q111 0 183.5 128t72.5 328z" />
    <glyph glyph-name="summation" unicode="&#x2211;" horiz-adv-x="1346" 
d="M51 1473h1239v-166h-989l690 -744l-719 -792h1035v-164h-1289v139l738 813l-705 758v156z" />
    <glyph glyph-name="product" unicode="&#x220f;" horiz-adv-x="1528" 
d="M160 1473h1208v-1866h-201v1693h-809v-1693h-198v1866z" />
    <glyph glyph-name="pi" unicode="&#x3c0;" horiz-adv-x="1186" 
d="M1139 930h-185l-110 -516q-14 -66 -21.5 -114.5t-7.5 -74.5q0 -57 24 -81.5t81 -24.5q21 0 46 2.5t52 7.5l-29 -129l-5 -1q-64 -15 -99 -15q-110 0 -168 51.5t-58 150.5q0 48 11.5 121t44.5 230l84 393h-348l-197 -930h-158l197 930h-39q-55 0 -84.5 -31t-40.5 -100h-145
q26 153 94 211.5t223 58.5h866z" />
    <glyph glyph-name="integral" unicode="&#x222b;" horiz-adv-x="1020" 
d="M301 -268q103 0 116 664q3 141 5 216q12 503 102 719.5t281 216.5q76 0 122 -39t46 -104q0 -48 -31 -77.5t-82 -29.5q-53 0 -85 35t-32 92q0 8 -6 15.5t-14 7.5q-105 0 -119 -634q-3 -157 -6 -245q-10 -308 -31.5 -461t-62.5 -247q-49 -114 -123 -173t-168 -59
q-73 0 -119.5 38t-46.5 97q0 53 31.5 84t83.5 31q47 0 79.5 -29t32.5 -67q0 -24 7.5 -37.5t19.5 -13.5z" />
    <glyph glyph-name="ordfeminine" unicode="&#xaa;" horiz-adv-x="776" 
d="M545 928v207q-199 -38 -284 -86.5t-85 -122.5q0 -52 35 -82.5t94 -30.5q52 0 110 27.5t130 87.5zM541 834q-56 -58 -119.5 -86.5t-134.5 -28.5q-98 0 -159.5 58t-61.5 149q0 118 110 188.5t369 116.5v55q0 52 -44.5 84.5t-115.5 32.5q-66 0 -116.5 -30t-80.5 -87l-98 49
q46 79 121 118.5t180 39.5q127 0 197.5 -58t70.5 -163v-418q0 -29 4.5 -56.5t12.5 -54.5v-12h-123z" />
    <glyph glyph-name="ordmasculine" unicode="&#xba;" horiz-adv-x="772" 
d="M166 1106q0 -146 57 -223.5t164 -77.5q106 0 162.5 77.5t56.5 223.5t-56 222.5t-163 76.5q-108 0 -164.5 -77t-56.5 -222zM53 1106q0 184 87.5 285.5t246.5 101.5t247.5 -101.5t88.5 -285.5t-88.5 -285.5t-247.5 -101.5q-158 0 -246 101.5t-88 285.5z" />
    <glyph glyph-name="Omega" unicode="&#x3a9;" horiz-adv-x="1573" 
d="M1473 156v-156h-590v150q193 111 296 279t103 374q0 251 -137 405t-359 154q-221 0 -359 -155t-138 -404q0 -205 103 -373.5t298 -279.5v-150h-590v156h332q-164 133 -242.5 285t-78.5 335q0 329 188.5 533t486.5 204q299 0 487.5 -202.5t188.5 -530.5
q0 -186 -78.5 -338.5t-242.5 -285.5h332z" />
    <glyph glyph-name="ae" unicode="&#xe6;" horiz-adv-x="1608" 
d="M758 190q-95 -107 -195 -157.5t-217 -50.5q-130 0 -212.5 82.5t-82.5 214.5q0 169 154.5 272.5t486.5 155.5v86q0 79 -57 124.5t-158 45.5q-87 0 -152.5 -42.5t-109.5 -127.5l-129 69q59 112 157 170t230 58q106 0 188.5 -36.5t141.5 -109.5q57 74 131.5 110t171.5 36
q200 0 309 -142t109 -401v-41h-682v-31q0 -171 78.5 -266.5t218.5 -95.5q98 0 174.5 48t124.5 140l108 -68q-63 -130 -166.5 -190.5t-261.5 -60.5q-131 0 -218.5 50.5t-141.5 157.5zM846 633h522q-3 154 -72 242t-186 88q-120 0 -189 -86.5t-75 -243.5zM694 281v294
q-268 -54 -380.5 -123t-112.5 -176q0 -74 47 -118.5t127 -44.5q66 0 143.5 40.5t175.5 127.5z" />
    <glyph glyph-name="oslash" unicode="&#xf8;" horiz-adv-x="1030" 
d="M346 162q39 -28 80 -42t86 -14q148 0 222.5 111.5t74.5 335.5q0 86 -13 150t-40 116zM272 256l408 653q-32 26 -72 39t-90 13q-147 0 -222 -109t-75 -326q0 -80 12.5 -146t38.5 -124zM74 -49l112 178q-60 79 -89 177t-29 222q0 270 117 416t333 146q69 0 126 -15t106 -45
l86 139l104 -65l-98 -156q60 -66 90.5 -171t30.5 -249q0 -260 -119 -403t-334 -143q-63 0 -120.5 15.5t-110.5 47.5l-101 -160z" />
    <glyph glyph-name="questiondown" unicode="&#xbf;" horiz-adv-x="899" 
d="M610 1481v-226h-196v226h196zM575 1010q2 -14 2.5 -27.5t0.5 -40.5q0 -92 -21 -156.5t-72 -130.5q-18 -24 -54 -68q-157 -196 -157 -306q0 -78 47 -126.5t121 -48.5q67 0 114 39t85 127l129 -69q-54 -115 -137 -171.5t-199 -56.5q-147 0 -234 86t-87 232q0 69 25.5 135
t78.5 135q29 38 86.5 103t79.5 96q30 44 42.5 89.5t12.5 111.5q0 6 -1 22t-1 25h139z" />
    <glyph glyph-name="exclamdown" unicode="&#xa1;" horiz-adv-x="633" 
d="M367 1006l47 -1006h-195l47 1006h101zM416 1481v-232h-201v232h201z" />
    <glyph glyph-name="logicalnot" unicode="&#xac;" horiz-adv-x="1706" 
d="M1452 858v-502h-115v385h-1083v117h1198z" />
    <glyph glyph-name="radical" unicode="&#x221a;" horiz-adv-x="1288" 
d="M1288 1647v-82h-119l-594 -1606h-53l-323 893l-119 -43l-23 68l262 92l265 -729l522 1407h182z" />
    <glyph glyph-name="florin" unicode="&#x192;" 
d="M82 -364l24 134q26 -8 49 -13t42 -5q88 0 136 69.5t89 278.5l141 721h-223v129h250l26 131q46 219 130 320.5t217 101.5q30 0 63.5 -4t71.5 -12l-29 -131q-35 9 -55.5 12.5t-36.5 3.5q-86 0 -135 -70t-82 -247l-19 -105h232v-129h-256l-117 -614q-64 -340 -155.5 -463
t-262.5 -123q-27 0 -51.5 3.5t-48.5 11.5z" />
    <glyph glyph-name="approxequal" unicode="&#x2248;" horiz-adv-x="1706" 
d="M1530 453q-107 -75 -202 -110.5t-187 -35.5q-98 0 -288 69.5t-290 69.5q-82 0 -169.5 -35.5t-215.5 -123.5v131q106 73 202 109t185 36q111 0 301.5 -68.5t276.5 -68.5q85 0 173.5 35.5t213.5 122.5v-131zM1530 803q-104 -73 -200 -108.5t-187 -35.5q-100 0 -290 69
t-290 69q-83 0 -171.5 -36t-213.5 -122v131q106 73 202 109t185 36q111 0 300.5 -68.5t277.5 -68.5q87 0 175 35t212 121v-131z" />
    <glyph glyph-name="Delta" unicode="&#x2206;" horiz-adv-x="1356" 
d="M1122 158l-444 1138l-445 -1138h889zM780 1473l586 -1473h-1374l586 1473h202z" />
    <glyph glyph-name="guillemotleft" unicode="&#xab;" horiz-adv-x="1020" 
d="M850 852l-258 -315l252 -320h-162l-250 320l262 315h156zM532 852l-258 -315l254 -320h-163l-248 320l260 315h155z" />
    <glyph glyph-name="guillemotright" unicode="&#xbb;" horiz-adv-x="1020" 
d="M479 217l258 315l-252 320h162l250 -320l-262 -315h-156zM160 217l256 315l-252 320h162l249 -320l-260 -315h-155z" />
    <glyph glyph-name="ellipsis" unicode="&#x2026;" horiz-adv-x="2048" 
d="M242 0v225h199v-225h-199zM924 0v225h199v-225h-199zM1608 0v225h199v-225h-199z" />
    <glyph glyph-name="nonbreakingspace" unicode="&#xa0;" 
 />
    <glyph glyph-name="Agrave" unicode="&#xc0;" 
d="M379 598h467l-221 772h-23zM35 0l457 1481h249l455 -1481h-172l-133 461h-551l-131 -461h-174zM753 1618h-106l-281 348h178z" />
    <glyph glyph-name="Atilde" unicode="&#xc3;" 
d="M379 598h467l-221 772h-23zM35 0l457 1481h249l455 -1481h-172l-133 461h-551l-131 -461h-174zM907 1884q-24 -92 -75 -141t-124 -49q-16 0 -32 2.5t-33 7.5l-80 27q-12 4 -25.5 6t-27.5 2q-35 0 -58.5 -15.5t-38.5 -47.5h-88q22 91 72.5 138.5t126.5 47.5q14 0 29 -2.5
t30 -7.5l78 -27q17 -5 32.5 -7.5t28.5 -2.5q36 0 60.5 17.5t36.5 51.5h88z" />
    <glyph glyph-name="Otilde" unicode="&#xd5;" horiz-adv-x="1360" 
d="M260 741q0 -294 111.5 -458t308.5 -164t308.5 164t111.5 458q0 295 -111.5 459t-308.5 164t-308.5 -164t-111.5 -459zM94 741q0 349 159.5 556.5t426.5 207.5t426.5 -206.5t159.5 -557.5q0 -350 -159.5 -558t-426.5 -208q-266 0 -426 208t-160 558zM971 1884
q-24 -92 -75 -141t-124 -49q-16 0 -32 2.5t-33 7.5l-80 27q-12 4 -25.5 6t-27.5 2q-35 0 -58.5 -15.5t-38.5 -47.5h-88q22 91 72.5 138.5t126.5 47.5q14 0 29 -2.5t30 -7.5l78 -27q17 -5 32.5 -7.5t28.5 -2.5q36 0 60.5 17.5t36.5 51.5h88z" />
    <glyph glyph-name="OE" unicode="&#x152;" horiz-adv-x="1931" 
d="M1016 408v659q0 34 -21.5 80.5t-56.5 87.5q-57 68 -121.5 98.5t-150.5 30.5q-194 0 -300 -162.5t-106 -460.5q0 -297 106 -460.5t298 -163.5q84 0 151 32t125 101q34 39 55 83.5t21 74.5zM1016 154q-68 -91 -158.5 -135t-210.5 -44q-259 0 -406 203t-147 563
q0 363 148 563.5t413 200.5q111 0 198.5 -40t162.5 -126v142h819v-140h-664v-495h467v-137h-467v-568h699v-141h-854v154z" />
    <glyph glyph-name="oe" unicode="&#x153;" horiz-adv-x="1716" 
d="M965 629h522q-4 155 -73 243.5t-185 88.5q-120 0 -189 -87t-75 -245zM221 537q0 -210 76 -320.5t219 -110.5q142 0 217.5 110.5t75.5 318.5t-74.5 317t-218.5 109t-219.5 -108.5t-75.5 -315.5zM877 186q-61 -105 -151.5 -157t-215.5 -52q-206 0 -323 148t-117 412
q0 262 117 406t329 144q128 0 219.5 -50.5t149.5 -153.5q56 102 141.5 153t200.5 51q197 0 306 -141t109 -397v-45h-681v-31q0 -172 78.5 -269.5t217.5 -97.5q99 0 176.5 49.5t125.5 141.5l106 -68q-62 -127 -165.5 -189.5t-254.5 -62.5q-135 0 -221.5 49t-146.5 160z" />
    <glyph glyph-name="endash" unicode="&#x2013;" horiz-adv-x="1024" 
d="M0 481v107h1024v-107h-1024z" />
    <glyph glyph-name="emdash" unicode="&#x2014;" horiz-adv-x="2048" 
d="M0 481v107h2048v-107h-2048z" />
    <glyph glyph-name="quotedblleft" unicode="&#x201c;" horiz-adv-x="829" 
d="M504 952v226l127 303h102l-110 -312h79v-217h-198zM141 952v226l127 303h103l-111 -312h80v-217h-199z" />
    <glyph glyph-name="quotedblright" unicode="&#x201d;" horiz-adv-x="829" 
d="M459 952l110 314h-80v215h199v-224l-127 -305h-102zM332 1481v-224l-127 -305h-103l111 314h-78v215h197z" />
    <glyph glyph-name="quoteleft" unicode="&#x2018;" horiz-adv-x="473" 
d="M141 952v226l127 303h103l-111 -312h80v-217h-199z" />
    <glyph glyph-name="quoteright" unicode="&#x2019;" horiz-adv-x="473" 
d="M332 1481v-224l-127 -305h-103l111 314h-78v215h197z" />
    <glyph glyph-name="divide" unicode="&#xf7;" horiz-adv-x="1706" 
d="M854 365q47 0 81 -34t34 -81t-33.5 -81t-81.5 -34t-81.5 33.5t-33.5 81.5t34 81.5t81 33.5zM1452 670v-117h-1198v117h1198zM854 1085q48 0 81.5 -33.5t33.5 -80.5q0 -48 -33.5 -81.5t-81.5 -33.5q-49 0 -82 33.5t-33 81.5q0 47 34 80.5t81 33.5z" />
    <glyph glyph-name="lozenge" unicode="&#x25ca;" horiz-adv-x="1012" 
d="M506 1409l-385 -817l385 -825l385 825zM506 1653l500 -1061l-500 -1069l-500 1069z" />
    <glyph glyph-name="ydieresis" unicode="&#xff;" horiz-adv-x="938" 
d="M406 18l-386 1053h152l311 -856l279 856h151l-366 -1089q-75 -220 -159.5 -296.5t-229.5 -76.5q-25 0 -49 3t-46 9l1 137q23 -5 44.5 -7.5t38.5 -2.5q110 0 167.5 60t91.5 210zM549 1266v186h160v-186h-160zM229 1266v186h160v-186h-160z" />
    <glyph glyph-name="Ydieresis" unicode="&#x178;" horiz-adv-x="1124" 
d="M481 0v625l-450 856h178l352 -684l354 684h179l-451 -856v-625h-162zM643 1682v186h160v-186h-160zM323 1682v186h160v-186h-160z" />
    <glyph glyph-name="fraction" unicode="&#x2215;" horiz-adv-x="342" 
d="M-342 -25l911 1528h113l-915 -1528h-109z" />
    <glyph glyph-name="currency" unicode="&#xa4;" 
d="M1137 416q-48 -222 -163.5 -331.5t-301.5 -109.5q-215 0 -345.5 150t-162.5 434h-164l27 94h129q-1 14 -2 37q-2 38 -2 49q0 21 1.5 48.5t3.5 60.5h-157l27 94h139q32 271 163 416t343 145q175 0 284 -99t158 -302l-137 -39q-43 153 -121 230t-190 77q-143 0 -233 -112
t-109 -316h567l-27 -94h-550q-4 -36 -5.5 -63.5t-1.5 -47.5q0 -11 3 -52q1 -20 1 -32h494l-29 -94h-457q25 -216 116.5 -333t236.5 -117q124 0 208.5 87t118.5 253z" />
    <glyph glyph-name="guilsinglleft" unicode="&#x2039;" horiz-adv-x="702" 
d="M532 852l-258 -315l254 -320h-163l-248 320l260 315h155z" />
    <glyph glyph-name="guilsinglright" unicode="&#x203a;" horiz-adv-x="702" 
d="M160 217l256 315l-252 320h162l249 -320l-260 -315h-155z" />
    <glyph glyph-name="fi" unicode="&#xf001;" horiz-adv-x="1036" 
d="M186 0v944h-180v127h180v152q0 140 62 209t188 69q28 0 60 -4.5t71 -13.5v-123q-31 7 -58.5 10.5t-51.5 3.5q-62 0 -92.5 -35t-30.5 -104v-164h225v-127h-225v-944h-148zM702 1300v181h177v-181h-177zM715 0v1071h149v-1071h-149z" />
    <glyph glyph-name="fl" unicode="&#xf002;" horiz-adv-x="1036" 
d="M186 0v944h-180v127h180v152q0 140 62 209t188 69q28 0 60 -4.5t71 -13.5v-123q-31 7 -58.5 10.5t-51.5 3.5q-62 0 -92.5 -35t-30.5 -104v-164h225v-127h-225v-944h-148zM719 0v1481h151v-1481h-151z" />
    <glyph glyph-name="daggerdbl" unicode="&#x2021;" horiz-adv-x="1024" 
d="M418 639q25 118 38.5 205.5t16.5 146.5l-323 -51v178l325 -53l-55 416h184l-55 -416l328 53v-178l-330 51q12 -103 27.5 -191t33.5 -161q-20 -77 -34.5 -165.5t-22.5 -184.5l326 51v-178l-328 51l55 -416h-184l55 418l-325 -53v178l327 -51q-12 104 -27 192.5t-32 157.5z
" />
    <glyph glyph-name="periodcentered" unicode="&#xb7;" horiz-adv-x="616" 
d="M184 729q0 52 35.5 87.5t87.5 35.5q53 0 89 -35.5t36 -87.5t-37 -88.5t-88 -36.5t-87 36.5t-36 88.5z" />
    <glyph glyph-name="quotesinglbase" unicode="&#x201a;" horiz-adv-x="473" 
d="M334 223v-229l-127 -299h-103l111 305h-80v223h199z" />
    <glyph glyph-name="quotedblbase" unicode="&#x201e;" horiz-adv-x="829" 
d="M459 -311l110 311h-80v217h199v-223l-127 -305h-102zM332 217v-223l-127 -305h-103l111 311h-78v217h197z" />
    <glyph glyph-name="perthousand" unicode="&#x2030;" horiz-adv-x="2611" 
d="M1948 315q0 -87 61.5 -149t149.5 -62q87 0 147.5 61.5t60.5 149.5q0 89 -59.5 149t-148.5 60q-90 0 -150.5 -60t-60.5 -149zM1821 315q0 143 97.5 240.5t240.5 97.5t241.5 -97.5t98.5 -240.5q0 -142 -99 -241t-241 -99t-240 99t-98 241zM1081 315q0 -88 61 -149.5
t148 -61.5q88 0 149.5 61.5t61.5 149.5q0 89 -60.5 149t-150.5 60q-89 0 -149 -60t-60 -149zM952 315q0 143 97.5 240.5t240.5 97.5t241.5 -97.5t98.5 -240.5q0 -142 -99 -241t-241 -99q-141 0 -239.5 99t-98.5 241zM236 1163q0 -87 61.5 -149t148.5 -62q88 0 148.5 61.5
t60.5 149.5q0 90 -60 150.5t-149 60.5t-149.5 -61t-60.5 -150zM389 -25l846 1528h113l-844 -1528h-115zM106 1163q0 143 99 241.5t241 98.5q143 0 240.5 -98.5t97.5 -241.5q0 -142 -98 -240t-240 -98t-241 98t-99 240z" />
    <glyph glyph-name="Acircumflex" unicode="&#xc2;" 
d="M379 598h467l-221 772h-23zM35 0l457 1481h249l455 -1481h-172l-133 461h-551l-131 -461h-174zM329 1618l197 348h178l197 -348h-107l-178 242l-180 -242h-107z" />
    <glyph glyph-name="Ecircumflex" unicode="&#xca;" horiz-adv-x="1169" 
d="M199 0v1481h874v-140h-711v-495h504v-137h-504v-568h746v-141h-909zM366 1618l197 348h178l197 -348h-107l-178 242l-180 -242h-107z" />
    <glyph glyph-name="Aacute" unicode="&#xc1;" 
d="M379 598h467l-221 772h-23zM35 0l457 1481h249l455 -1481h-172l-133 461h-551l-131 -461h-174zM479 1618l209 348h178l-281 -348h-106z" />
    <glyph glyph-name="Edieresis" unicode="&#xcb;" horiz-adv-x="1169" 
d="M199 0v1481h874v-140h-711v-495h504v-137h-504v-568h746v-141h-909zM733 1682v186h160v-186h-160zM413 1682v186h160v-186h-160z" />
    <glyph glyph-name="Egrave" unicode="&#xc8;" horiz-adv-x="1169" 
d="M199 0v1481h874v-140h-711v-495h504v-137h-504v-568h746v-141h-909zM790 1618h-106l-281 348h178z" />
    <glyph glyph-name="Iacute" unicode="&#xcd;" horiz-adv-x="584" 
d="M209 0v1481h166v-1481h-166zM156 1618l209 348h178l-281 -348h-106z" />
    <glyph glyph-name="Icircumflex" unicode="&#xce;" horiz-adv-x="584" 
d="M209 0v1481h166v-1481h-166zM6 1618l197 348h178l197 -348h-107l-178 242l-180 -242h-107z" />
    <glyph glyph-name="Idieresis" unicode="&#xcf;" horiz-adv-x="584" 
d="M209 0v1481h166v-1481h-166zM373 1682v186h160v-186h-160zM53 1682v186h160v-186h-160z" />
    <glyph glyph-name="Igrave" unicode="&#xcc;" horiz-adv-x="584" 
d="M209 0v1481h166v-1481h-166zM430 1618h-106l-281 348h178z" />
    <glyph glyph-name="Oacute" unicode="&#xd3;" horiz-adv-x="1360" 
d="M260 741q0 -294 111.5 -458t308.5 -164t308.5 164t111.5 458q0 295 -111.5 459t-308.5 164t-308.5 -164t-111.5 -459zM94 741q0 349 159.5 556.5t426.5 207.5t426.5 -206.5t159.5 -557.5q0 -350 -159.5 -558t-426.5 -208q-266 0 -426 208t-160 558zM543 1618l209 348h178
l-281 -348h-106z" />
    <glyph glyph-name="Ocircumflex" unicode="&#xd4;" horiz-adv-x="1360" 
d="M260 741q0 -294 111.5 -458t308.5 -164t308.5 164t111.5 458q0 295 -111.5 459t-308.5 164t-308.5 -164t-111.5 -459zM94 741q0 349 159.5 556.5t426.5 207.5t426.5 -206.5t159.5 -557.5q0 -350 -159.5 -558t-426.5 -208q-266 0 -426 208t-160 558zM393 1618l197 348h178
l197 -348h-107l-178 242l-180 -242h-107z" />
    <glyph glyph-name="apple" unicode="&#xf000;" horiz-adv-x="1618" 
d="M836 1216q-1 6 -1.5 14t-0.5 23q0 124 95 229.5t236 131.5q1 -10 1.5 -23t0.5 -39q0 -131 -103.5 -234.5t-203.5 -103.5h-8q-3 0 -7.5 1t-8.5 1zM1505 403q-114 -247 -205 -342.5t-204 -95.5q-50 0 -131.5 33t-122.5 33q-45 0 -131 -33t-127 -33q-64 0 -128.5 44
t-129.5 132q-102 140 -157.5 295.5t-55.5 300.5q0 219 125 356.5t323 137.5q68 0 155 -34t124 -34q34 0 121.5 35t152.5 35q110 0 198 -40t161 -124q-102 -65 -151.5 -145.5t-49.5 -182.5q0 -113 60 -200t173 -138z" />
    <glyph glyph-name="Ograve" unicode="&#xd2;" horiz-adv-x="1360" 
d="M260 741q0 -294 111.5 -458t308.5 -164t308.5 164t111.5 458q0 295 -111.5 459t-308.5 164t-308.5 -164t-111.5 -459zM94 741q0 349 159.5 556.5t426.5 207.5t426.5 -206.5t159.5 -557.5q0 -350 -159.5 -558t-426.5 -208q-266 0 -426 208t-160 558zM817 1618h-106
l-281 348h178z" />
    <glyph glyph-name="Uacute" unicode="&#xda;" horiz-adv-x="1456" 
d="M195 1481h161v-955q0 -100 9 -150.5t30 -90.5q41 -80 128 -124t204 -44q119 0 206 44t128 124q21 42 30 94.5t9 173.5v928h162v-981q0 -257 -136.5 -391t-398.5 -134q-263 0 -397.5 132.5t-134.5 392.5v981zM604 1618l209 348h178l-281 -348h-106z" />
    <glyph glyph-name="Ucircumflex" unicode="&#xdb;" horiz-adv-x="1456" 
d="M195 1481h161v-955q0 -100 9 -150.5t30 -90.5q41 -80 128 -124t204 -44q119 0 206 44t128 124q21 42 30 94.5t9 173.5v928h162v-981q0 -257 -136.5 -391t-398.5 -134q-263 0 -397.5 132.5t-134.5 392.5v981zM454 1618l197 348h178l197 -348h-107l-178 242l-180 -242h-107
z" />
    <glyph glyph-name="Ugrave" unicode="&#xd9;" horiz-adv-x="1456" 
d="M195 1481h161v-955q0 -100 9 -150.5t30 -90.5q41 -80 128 -124t204 -44q119 0 206 44t128 124q21 42 30 94.5t9 173.5v928h162v-981q0 -257 -136.5 -391t-398.5 -134q-263 0 -397.5 132.5t-134.5 392.5v981zM878 1618h-106l-281 348h178z" />
    <glyph glyph-name="dotlessi" unicode="&#x131;" horiz-adv-x="508" 
d="M178 0v1071h152v-1071h-152z" />
    <glyph glyph-name="circumflex" unicode="&#x2c6;" horiz-adv-x="1024" 
d="M225 1202l197 348h178l197 -348h-107l-178 242l-180 -242h-107z" />
    <glyph glyph-name="tilde" unicode="&#x2dc;" horiz-adv-x="1024" 
d="M803 1468q-24 -92 -75 -141t-124 -49q-16 0 -32 2.5t-33 7.5l-80 27q-12 4 -25.5 6t-27.5 2q-35 0 -58.5 -15.5t-38.5 -47.5h-88q22 91 72.5 138.5t126.5 47.5q14 0 29 -2.5t30 -7.5l78 -27q17 -5 32.5 -7.5t28.5 -2.5q36 0 60.5 17.5t36.5 51.5h88z" />
    <glyph glyph-name="macron" unicode="&#xaf;" horiz-adv-x="1024" 
d="M254 1296v125h516v-125h-516z" />
    <glyph glyph-name="breve" unicode="&#x2d8;" horiz-adv-x="1024" 
d="M229 1511h90q7 -76 52.5 -110.5t140.5 -34.5t140.5 34.5t52.5 110.5h90q-11 -141 -79 -206.5t-204 -65.5t-204.5 66.5t-78.5 205.5z" />
    <glyph glyph-name="dotaccent" unicode="&#x2d9;" horiz-adv-x="1024" 
d="M428 1260v198h168v-198h-168z" />
    <glyph glyph-name="ring" unicode="&#x2da;" horiz-adv-x="1024" 
d="M371 1430q0 -61 40.5 -102.5t100.5 -41.5t101.5 42t41.5 102q0 59 -41.5 101t-101.5 42q-61 0 -101 -41.5t-40 -101.5zM264 1430q0 104 72 175.5t176 71.5t176 -71.5t72 -175.5q0 -105 -72 -176.5t-176 -71.5t-176 71.5t-72 176.5z" />
    <glyph glyph-name="cedilla" unicode="&#xb8;" horiz-adv-x="1024" 
d="M299 -422v86q74 -17 136.5 -26t109.5 -9q60 0 90.5 20.5t30.5 61.5q0 52 -33 75.5t-107 23.5q-20 0 -30.5 -0.5t-20.5 -1.5v192h74v-106h22q112 0 169 -45t57 -132q0 -89 -63 -135.5t-185 -46.5q-44 0 -103 10t-147 33z" />
    <glyph glyph-name="hungarumlaut" unicode="&#x2dd;" horiz-adv-x="1024" 
d="M580 1202l168 348h155l-239 -348h-84zM322 1202l147 348h158l-221 -348h-84z" />
    <glyph glyph-name="ogonek" unicode="&#x2db;" horiz-adv-x="1024" 
d="M582 0q-71 -64 -104.5 -118.5t-33.5 -104.5q0 -45 22 -63.5t75 -18.5h82v-129h-80q-113 0 -167 40t-54 124q0 65 40.5 125.5t145.5 144.5h74z" />
    <glyph glyph-name="caron" unicode="&#x2c7;" horiz-adv-x="1024" 
d="M225 1550h107l180 -243l178 243h107l-197 -348h-178z" />
    <glyph glyph-name="Lslash" unicode="&#x141;" horiz-adv-x="1073" 
d="M221 0v639l-221 -156v144l221 151v703h166v-611l320 226v-146l-320 -219v-590h664v-141h-830z" />
    <glyph glyph-name="lslash" unicode="&#x142;" horiz-adv-x="522" 
d="M184 0v651l-184 -129v129l184 131v699h152v-621l186 127v-129l-186 -129v-729h-152z" />
    <glyph glyph-name="Scaron" unicode="&#x160;" horiz-adv-x="1147" 
d="M70 371l155 51q40 -142 137 -223.5t224 -81.5q141 0 225 70.5t84 187.5q0 69 -25 120t-75 85q-72 48 -249 112q-63 23 -95 35q-187 73 -263.5 161t-76.5 222q0 179 118.5 287t315.5 108q172 0 291.5 -93t171.5 -269l-148 -43q-36 131 -121 199.5t-211 68.5
q-119 0 -189.5 -65.5t-70.5 -176.5q0 -52 23.5 -96t73.5 -84q49 -38 227 -103q57 -20 88 -32q211 -80 292 -175t81 -251q0 -185 -125.5 -297.5t-333.5 -112.5q-199 0 -331 100t-193 296zM286 1966h107l180 -243l178 243h107l-197 -348h-178z" />
    <glyph glyph-name="scaron" unicode="&#x161;" horiz-adv-x="891" 
d="M39 184l119 95q63 -87 139 -130t166 -43q98 0 156.5 49.5t58.5 131.5q0 122 -245 192q-55 16 -85 25q-136 41 -203 113.5t-67 179.5q0 130 90 211.5t233 81.5q119 0 214 -44t171 -135l-98 -98q-60 77 -129.5 115.5t-148.5 38.5q-83 0 -132 -42.5t-49 -113.5q0 -35 14 -64
t40 -47q49 -35 183 -71q65 -17 101 -29q136 -43 198 -114.5t62 -182.5q0 -146 -104 -233.5t-279 -87.5q-126 0 -232.5 53t-172.5 149zM159 1550h107l180 -243l178 243h107l-197 -348h-178z" />
    <glyph glyph-name="Zcaron" unicode="&#x17d;" horiz-adv-x="1118" 
d="M80 0v109l749 1234h-677v138h872v-105l-750 -1235h744v-141h-938zM272 1966h107l180 -243l178 243h107l-197 -348h-178z" />
    <glyph glyph-name="zcaron" unicode="&#x17e;" horiz-adv-x="891" 
d="M49 0v109l604 835h-544v127h725v-106l-607 -834h602v-131h-780zM159 1550h107l180 -243l178 243h107l-197 -348h-178z" />
    <glyph glyph-name="brokenbar" unicode="&#xa6;" horiz-adv-x="1024" 
d="M575 408v-758h-126v758h126zM575 1432v-758h-126v758h126z" />
    <glyph glyph-name="Eth" unicode="&#xd0;" horiz-adv-x="1397" 
d="M522 1343h-155v-507h331v-119h-331v-572h133q167 0 263.5 24t164.5 79q93 73 142.5 199t49.5 292q0 178 -48.5 306t-143.5 202q-67 52 -154 74t-252 22zM207 0v717h-207v119h207v645h350q170 0 278.5 -27.5t190.5 -89.5q124 -94 190 -254.5t66 -368.5q0 -369 -190.5 -555
t-569.5 -186h-315z" />
    <glyph glyph-name="eth" unicode="&#xf0;" horiz-adv-x="1030" 
d="M643 1018q-40 55 -84.5 101t-93.5 83l-242 -147l-51 75l219 132q-55 38 -113.5 69.5t-119.5 57.5l45 114q85 -29 163.5 -69.5t151.5 -92.5l232 140l47 -74l-203 -125q184 -160 276.5 -353.5t92.5 -422.5q0 -251 -117 -387.5t-330 -136.5q-212 0 -329 137t-117 387
q0 251 117 389.5t329 138.5q33 0 64 -4t63 -12zM221 506q0 -197 76 -301.5t219 -104.5q142 0 217.5 104t75.5 302t-75 301.5t-218 103.5t-219 -104t-76 -301z" />
    <glyph glyph-name="Yacute" unicode="&#xdd;" horiz-adv-x="1124" 
d="M481 0v625l-450 856h178l352 -684l354 684h179l-451 -856v-625h-162zM426 1618l209 348h178l-281 -348h-106z" />
    <glyph glyph-name="yacute" unicode="&#xfd;" horiz-adv-x="938" 
d="M406 18l-386 1053h152l311 -856l279 856h151l-366 -1089q-75 -220 -159.5 -296.5t-229.5 -76.5q-25 0 -49 3t-46 9l1 137q23 -5 44.5 -7.5t38.5 -2.5q110 0 167.5 60t91.5 210zM332 1202l209 348h178l-281 -348h-106z" />
    <glyph glyph-name="Thorn" unicode="&#xde;" 
d="M358 498h252q202 0 285.5 64t83.5 214q0 141 -87.5 202.5t-293.5 61.5h-240v-542zM199 0v1481h159v-303h271q265 0 391.5 -98.5t126.5 -305.5q0 -198 -123.5 -307t-347.5 -109h-318v-358h-159z" />
    <glyph glyph-name="thorn" unicode="&#xfe;" horiz-adv-x="1108" 
d="M315 268q61 -85 130 -124.5t157 -39.5q136 0 209.5 110t73.5 314q0 211 -74.5 323t-214.5 112q-91 0 -159 -39t-122 -121v-535zM168 -389v1870h147v-531q56 72 124 106t155 34q212 0 328 -146t116 -414q0 -266 -115 -407t-331 -141q-90 0 -158 32.5t-119 100.5v-504h-147
z" />
    <glyph glyph-name="minus" unicode="&#x2212;" horiz-adv-x="1706" 
d="M1452 670v-119h-1198v119h1198z" />
    <glyph glyph-name="multiply" unicode="&#xd7;" horiz-adv-x="1706" 
d="M858 692l475 477l82 -82l-475 -477l475 -475l-82 -82l-475 475l-477 -475l-80 82l475 475l-475 477l80 82z" />
    <glyph glyph-name="onesuperior" unicode="&#xb9;" horiz-adv-x="813" 
d="M461 1493v-821h160v-80h-422v80h166v717l-181 -19v62q59 15 108.5 30t90.5 31h78z" />
    <glyph glyph-name="twosuperior" unicode="&#xb2;" horiz-adv-x="813" 
d="M68 592v84q32 66 84.5 127t130.5 123q35 29 112 80t107 79q47 44 68.5 84t21.5 82q0 77 -50 121.5t-136 44.5q-90 0 -149 -49t-81 -141l-94 18q29 122 112 185t214 63q133 0 210.5 -64.5t77.5 -175.5q0 -45 -12.5 -83t-38.5 -72q-51 -65 -210 -172q-35 -23 -52 -35
q-82 -56 -136.5 -110.5t-78.5 -106.5h528v-82h-628z" />
    <glyph glyph-name="threesuperior" unicode="&#xb3;" horiz-adv-x="813" 
d="M45 754l84 53q45 -74 110 -112t148 -38q103 0 161 47t58 132q0 94 -71.5 142t-210.5 48q-21 0 -39 -0.5t-37 -1.5v84q15 -1 31.5 -1.5t42.5 -0.5q125 0 190.5 43.5t65.5 126.5q0 64 -49 101.5t-134 37.5q-68 0 -122.5 -29.5t-102.5 -93.5l-76 54q59 74 135 110.5
t170 36.5q129 0 205 -58.5t76 -156.5q0 -73 -37.5 -125.5t-112.5 -81.5q89 -30 135 -88t46 -139q0 -123 -86 -194.5t-234 -71.5q-115 0 -202 44t-144 132z" />
    <glyph glyph-name="onequarter" unicode="&#xbc;" horiz-adv-x="1894" 
d="M1681 827v-561h154v-69h-154v-211h-90v211h-420v57l377 573h133zM1591 266v486l-317 -486h317zM434 -25l912 1528h112l-915 -1528h-109zM438 1493v-768h154v-74h-404v74h158v670l-172 -17v58q50 12 97.5 26.5t90.5 30.5h76z" />
    <glyph glyph-name="onehalf" unicode="&#xbd;" horiz-adv-x="1894" 
d="M1184 0v78q28 60 78 116.5t127 116.5q33 27 106.5 74.5t101.5 75.5q45 41 65.5 78.5t20.5 74.5q0 73 -47.5 114.5t-130.5 41.5q-85 0 -142 -46.5t-77 -131.5l-90 16q28 115 106.5 174.5t204.5 59.5q127 0 201 -60.5t74 -163.5q0 -44 -11.5 -79.5t-35.5 -65.5
q-50 -61 -202 -161q-32 -21 -48 -31q-79 -55 -131 -105.5t-76 -97.5h504v-78h-598zM434 -25l912 1528h112l-915 -1528h-109zM438 1493v-768h154v-74h-404v74h158v670l-172 -17v58q50 12 97.5 26.5t90.5 30.5h76z" />
    <glyph glyph-name="threequarters" unicode="&#xbe;" horiz-adv-x="1896" 
d="M1681 827v-561h154v-69h-154v-211h-90v211h-420v57l377 573h133zM1591 266v486l-317 -486h317zM434 -25l912 1528h112l-915 -1528h-109zM43 803l80 49q44 -69 106.5 -104t141.5 -35q97 0 152 44t55 122q0 88 -68 133t-201 45q-19 0 -35.5 -0.5t-35.5 -1.5v78
q15 0 38 -1.5t31 -1.5q118 0 181 41t63 117q0 61 -46 96t-126 35q-66 0 -118 -27.5t-99 -86.5l-74 49q58 70 130 104.5t163 34.5q123 0 195.5 -54.5t72.5 -146.5q0 -68 -36 -117t-107 -77q85 -30 128.5 -83t43.5 -128q0 -115 -81.5 -182.5t-221.5 -67.5q-110 0 -194 42
t-138 124z" />
    <glyph glyph-name="franc" unicode="&#x20a3;" horiz-adv-x="1763" 
d="M199 0v1481h868v-140h-705v-493h523v-139h-523v-709h-163zM1268 0v1071h151v-244q55 132 130.5 194t179.5 62q14 0 21 -0.5t13 -1.5l1 -147h-19q-110 0 -193.5 -86.5t-132.5 -251.5v-596h-151z" />
    <glyph glyph-name="Gbreve" unicode="&#x11e;" horiz-adv-x="1352" 
d="M1069 0l-6 162q-69 -95 -165 -141t-226 -46q-268 0 -424 203.5t-156 554.5q0 367 154 569.5t432 202.5q195 0 323.5 -108.5t190.5 -325.5l-168 -33q-43 163 -131.5 244.5t-220.5 81.5q-198 0 -305 -160.5t-107 -458.5q0 -297 111.5 -462.5t310.5 -165.5q165 0 261.5 95.5
t96.5 260.5v105h-342v141h512v-719h-141zM393 1927h90q7 -76 52.5 -110.5t140.5 -34.5t140.5 34.5t52.5 110.5h90q-11 -141 -79 -206.5t-204 -65.5t-204.5 66.5t-78.5 205.5z" />
    <glyph glyph-name="gbreve" unicode="&#x11f;" horiz-adv-x="995" 
d="M190 -106q0 -80 75.5 -121t219.5 -41q173 0 256.5 39.5t83.5 122.5q0 80 -83.5 118.5t-258.5 38.5q-140 0 -216.5 -41t-76.5 -116zM244 731q0 -123 65 -190.5t185 -67.5q114 0 179.5 65.5t65.5 180.5q0 117 -68 185.5t-186 68.5q-110 0 -175.5 -65.5t-65.5 -176.5z
M225 86q-66 23 -97.5 62.5t-31.5 99.5q0 52 32 92t112 86q-68 49 -102 121.5t-34 169.5q0 174 106 274.5t290 100.5q75 0 138 -20t114 -60q56 50 102.5 72t93.5 22h27v-139h-31q-55 0 -83 -8t-42 -25q31 -44 45.5 -95t14.5 -116q0 -171 -104.5 -271t-282.5 -100
q-38 0 -78.5 6t-81.5 17q-43 -16 -66.5 -41.5t-23.5 -54.5q0 -69 203 -83q65 -4 104 -8q244 -22 333 -86t89 -202q0 -142 -123.5 -215.5t-360.5 -73.5q-220 0 -330 65t-110 195q0 76 41.5 126.5t136.5 88.5zM215 1511h90q7 -76 52.5 -110.5t140.5 -34.5t140.5 34.5
t52.5 110.5h90q-11 -141 -79 -206.5t-204 -65.5t-204.5 66.5t-78.5 205.5z" />
    <glyph glyph-name="Idotaccent" unicode="&#x130;" horiz-adv-x="584" 
d="M209 0v1481h166v-1481h-166zM209 1676v198h168v-198h-168z" />
    <glyph glyph-name="Scedilla" unicode="&#x15e;" horiz-adv-x="1147" 
d="M70 371l155 51q40 -142 137 -223.5t224 -81.5q141 0 225 70.5t84 187.5q0 69 -25 120t-75 85q-72 48 -249 112q-63 23 -95 35q-187 73 -263.5 161t-76.5 222q0 179 118.5 287t315.5 108q172 0 291.5 -93t171.5 -269l-148 -43q-36 131 -121 199.5t-211 68.5
q-119 0 -189.5 -65.5t-70.5 -176.5q0 -52 23.5 -96t73.5 -84q49 -38 227 -103q57 -20 88 -32q211 -80 292 -175t81 -251q0 -185 -125.5 -297.5t-333.5 -112.5q-199 0 -331 100t-193 296zM360 -422v86q74 -17 136.5 -26t109.5 -9q60 0 90.5 20.5t30.5 61.5q0 52 -33 75.5
t-107 23.5q-20 0 -30.5 -0.5t-20.5 -1.5v192h74v-106h22q112 0 169 -45t57 -132q0 -89 -63 -135.5t-185 -46.5q-44 0 -103 10t-147 33z" />
    <glyph glyph-name="scedilla" unicode="&#x15f;" horiz-adv-x="891" 
d="M39 184l119 95q63 -87 139 -130t166 -43q98 0 156.5 49.5t58.5 131.5q0 122 -245 192q-55 16 -85 25q-136 41 -203 113.5t-67 179.5q0 130 90 211.5t233 81.5q119 0 214 -44t171 -135l-98 -98q-60 77 -129.5 115.5t-148.5 38.5q-83 0 -132 -42.5t-49 -113.5q0 -35 14 -64
t40 -47q49 -35 183 -71q65 -17 101 -29q136 -43 198 -114.5t62 -182.5q0 -146 -104 -233.5t-279 -87.5q-126 0 -232.5 53t-172.5 149zM233 -422v86q74 -17 136.5 -26t109.5 -9q60 0 90.5 20.5t30.5 61.5q0 52 -33 75.5t-107 23.5q-20 0 -30.5 -0.5t-20.5 -1.5v192h74v-106
h22q112 0 169 -45t57 -132q0 -89 -63 -135.5t-185 -46.5q-44 0 -103 10t-147 33z" />
    <glyph glyph-name="Cacute" unicode="&#x106;" horiz-adv-x="1237" 
d="M1186 444q-54 -234 -184.5 -351.5t-337.5 -117.5q-273 0 -421.5 199.5t-148.5 566.5q0 357 149.5 560.5t407.5 203.5q206 0 334 -111.5t174 -330.5l-149 -39q-35 166 -124 254t-220 88q-195 0 -300.5 -164t-105.5 -467q0 -296 107 -457t303 -161q145 0 240.5 93.5
t125.5 266.5zM527 1618l209 348h178l-281 -348h-106z" />
    <glyph glyph-name="cacute" unicode="&#x107;" horiz-adv-x="961" 
d="M913 258q-65 -139 -166.5 -207.5t-240.5 -68.5q-210 0 -320 142t-110 413q0 261 114 408t316 147q138 0 238.5 -75.5t148.5 -213.5l-148 -47q-31 99 -94.5 153t-148.5 54q-133 0 -204 -110t-71 -316q0 -212 71.5 -320t211.5 -108q85 0 158 56t120 159zM373 1202l209 348
h178l-281 -348h-106z" />
    <glyph glyph-name="Ccaron" unicode="&#x10c;" horiz-adv-x="1237" 
d="M1186 444q-54 -234 -184.5 -351.5t-337.5 -117.5q-273 0 -421.5 199.5t-148.5 566.5q0 357 149.5 560.5t407.5 203.5q206 0 334 -111.5t174 -330.5l-149 -39q-35 166 -124 254t-220 88q-195 0 -300.5 -164t-105.5 -467q0 -296 107 -457t303 -161q145 0 240.5 93.5
t125.5 266.5zM377 1966h107l180 -243l178 243h107l-197 -348h-178z" />
    <glyph glyph-name="ccaron" unicode="&#x10d;" horiz-adv-x="961" 
d="M913 258q-65 -139 -166.5 -207.5t-240.5 -68.5q-210 0 -320 142t-110 413q0 261 114 408t316 147q138 0 238.5 -75.5t148.5 -213.5l-148 -47q-31 99 -94.5 153t-148.5 54q-133 0 -204 -110t-71 -316q0 -212 71.5 -320t211.5 -108q85 0 158 56t120 159zM223 1550h107
l180 -243l178 243h107l-197 -348h-178z" />
    <glyph glyph-name="dcroat" unicode="&#x111;" horiz-adv-x="1110" 
d="M786 803q-56 84 -124 124t-154 40q-131 0 -204 -109t-73 -307q0 -222 73 -332t220 -110q80 0 146.5 40.5t115.5 118.5v535zM934 1481v-170h176v-109h-176v-868q0 -131 3.5 -201t10.5 -133h-114l-35 135q-63 -81 -132.5 -116t-166.5 -35q-200 0 -311 146.5t-111 410.5
q0 263 112 406t318 143q96 0 164.5 -35t113.5 -107v254h-346v109h346v170h148z" />
    <glyph glyph-name="sfthyphen" unicode="&#xad;" horiz-adv-x="676" 
d="M84 467v137h500v-137h-500z" />
    <glyph glyph-name="periodcentered" unicode="&#x2219;" horiz-adv-x="616" 
d="M184 729q0 52 35.5 87.5t87.5 35.5q53 0 89 -35.5t36 -87.5t-37 -88.5t-88 -36.5t-87 36.5t-36 88.5z" />
    <glyph glyph-name="euro" 
d="M1137 416q-48 -222 -163.5 -331.5t-301.5 -109.5q-215 0 -345.5 150t-162.5 434h-164l27 94h129q-1 14 -2 37q-2 38 -2 49q0 21 1.5 48.5t3.5 60.5h-157l27 94h139q32 271 163 416t343 145q175 0 284 -99t158 -302l-137 -39q-43 153 -121 230t-190 77q-143 0 -233 -112
t-109 -316h567l-27 -94h-550q-4 -36 -5.5 -63.5t-1.5 -47.5q0 -11 3 -52q1 -20 1 -32h494l-29 -94h-457q25 -216 116.5 -333t236.5 -117q124 0 208.5 87t118.5 253z" />
    <glyph glyph-name="euro" unicode="&#x20ac;" 
d="M1137 416q-48 -222 -163.5 -331.5t-301.5 -109.5q-215 0 -345.5 150t-162.5 434h-164l27 94h129q-1 14 -2 37q-2 38 -2 49q0 21 1.5 48.5t3.5 60.5h-157l27 94h139q32 271 163 416t343 145q175 0 284 -99t158 -302l-137 -39q-43 153 -121 230t-190 77q-143 0 -233 -112
t-109 -316h567l-27 -94h-550q-4 -36 -5.5 -63.5t-1.5 -47.5q0 -11 3 -52q1 -20 1 -32h494l-29 -94h-457q25 -216 116.5 -333t236.5 -117q124 0 208.5 87t118.5 253z" />
    </font>
</defs>
</svg>
